<svg width="12" height="12" viewBox="0 0 12 12" fill="none" xmlns="http://www.w3.org/2000/svg">
<path d="M7.42857 12C6.89524 12 6.39286 11.9143 5.92143 11.7429C5.45 11.5714 5.01905 11.3333 4.62857 11.0286L3.82857 11.8286C3.71429 11.9429 3.58095 12 3.42857 12C3.27619 12 3.14286 11.9429 3.02857 11.8286C2.91429 11.7143 2.85714 11.581 2.85714 11.4286C2.85714 11.2762 2.91429 11.1429 3.02857 11.0286L3.82857 10.2286C3.52381 9.8381 3.28571 9.40714 3.11429 8.93571C2.94286 8.46429 2.85714 7.96191 2.85714 7.42857C2.85714 6.11429 3.3119 5.02381 4.22143 4.15714C5.13095 3.29048 6.2 2.85714 7.42857 2.85714H10.8571C11.1714 2.85714 11.4405 2.96905 11.6643 3.19286C11.8881 3.41667 12 3.68571 12 4V7.42857C12 8.01905 11.8881 8.59048 11.6643 9.14286C11.4405 9.69524 11.1048 10.2 10.6571 10.6571C10.2 11.1048 9.69524 11.4405 9.14286 11.6643C8.59048 11.8881 8.01905 12 7.42857 12ZM2.57143 5.14286C2.57143 4.42857 2.82143 3.82143 3.32143 3.32143C3.82143 2.82143 4.42857 2.57143 5.14286 2.57143C4.42857 2.57143 3.82143 2.32143 3.32143 1.82143C2.82143 1.32143 2.57143 0.714286 2.57143 0C2.57143 0.714286 2.32143 1.32143 1.82143 1.82143C1.32143 2.32143 0.714286 2.57143 0 2.57143C0.714286 2.57143 1.32143 2.82143 1.82143 3.32143C2.32143 3.82143 2.57143 4.42857 2.57143 5.14286ZM7.6 6.45714L5.04286 9.01429C4.92857 9.12857 4.87381 9.2619 4.87857 9.41429C4.88333 9.56667 4.9381 9.7 5.04286 9.81429C5.15714 9.92857 5.29048 9.9881 5.44286 9.99286C5.59524 9.99762 5.72857 9.94286 5.84286 9.82857L8.4 7.25714C8.51429 7.14286 8.57143 7.00952 8.57143 6.85714C8.57143 6.70476 8.51429 6.57143 8.4 6.45714C8.28571 6.34286 8.15238 6.28571 8 6.28571C7.84762 6.28571 7.71429 6.34286 7.6 6.45714Z" fill="#1F8B65"/>
</svg>
