<svg width="22" height="22" viewBox="0 0 22 22" fill="none" xmlns="http://www.w3.org/2000/svg">
<g filter="url(#filter0_d_139_1914)">
<circle cx="10" cy="10" r="10" fill="#2FAB7F"/>
</g>
<path opacity="0.1" d="M5 18.25L6.5 18.75L18.25 5.75L17.5 4.75L16.25 3.75L15.5 3.25L12.5 2L1.5 12.5L1.75 14.25L5 18.25Z" fill="url(#paint0_linear_139_1914)"/>
<path opacity="0.15" d="M12.6339 2L1.5 12.3827L2.25 16L16 3.18852L13.4107 2.23771L12.6339 2Z" fill="url(#paint1_linear_139_1914)"/>
<path d="M11.25 5.58811L10.8514 4.95282L10.8514 4.95282L11.25 5.58811ZM12.8125 4.99988L13.4748 5.35174C13.5983 5.11928 13.5909 4.83909 13.4553 4.61348C13.3197 4.38788 13.0757 4.24988 12.8125 4.24988V4.99988ZM10.1384 6.76628L10.1216 7.51609C10.4007 7.52234 10.6601 7.37309 10.795 7.12872L10.1384 6.76628ZM13.053 7.62118L12.552 8.17932C12.5827 8.20691 12.6157 8.23192 12.6506 8.25408L13.053 7.62118ZM12.8125 7.35282L13.4748 7.00095L13.4748 7.00095L12.8125 7.35282ZM11.6486 6.22341C12.0527 5.96984 12.3744 5.8523 12.5776 5.79768C12.6796 5.77024 12.7531 5.75831 12.7936 5.75323C12.8139 5.75069 12.8259 5.74985 12.8293 5.74965C12.8309 5.74955 12.8304 5.7496 12.8277 5.74969C12.8263 5.74973 12.8243 5.74978 12.8218 5.74981C12.8205 5.74983 12.8191 5.74985 12.8176 5.74986C12.8168 5.74987 12.816 5.74987 12.8151 5.74987C12.8147 5.74987 12.8143 5.74988 12.8139 5.74988C12.8136 5.74988 12.8133 5.74988 12.8132 5.74988C12.8128 5.74988 12.8125 5.74988 12.8125 4.99988C12.8125 4.24988 12.8122 4.24988 12.8118 4.24988C12.8117 4.24988 12.8113 4.24988 12.8111 4.24988C12.8106 4.24988 12.8101 4.24988 12.8096 4.24988C12.8086 4.24989 12.8076 4.24989 12.8065 4.2499C12.8044 4.24992 12.802 4.24994 12.7996 4.24998C12.7946 4.25005 12.789 4.25017 12.7829 4.25036C12.7705 4.25073 12.7556 4.25136 12.7384 4.25241C12.7038 4.2545 12.6598 4.25826 12.6068 4.26491C12.5008 4.27821 12.3594 4.30305 12.1881 4.34914C11.8443 4.44157 11.3848 4.61815 10.8514 4.95282L11.6486 6.22341ZM10.795 7.12872C10.9266 6.89044 11.1924 6.50969 11.6486 6.22341L10.8514 4.95282C10.1131 5.41603 9.69175 6.02351 9.48181 6.40384L10.795 7.12872ZM10 7.51473C10.0407 7.51473 10.0812 7.51519 10.1216 7.51609L10.1552 6.01647C10.1036 6.01531 10.0519 6.01473 10 6.01473V7.51473ZM5.75 10.8824C5.75 9.15212 7.50999 7.51473 10 7.51473V6.01473C6.96716 6.01473 4.25 8.0644 4.25 10.8824H5.75ZM10 14.25C7.50999 14.25 5.75 12.6126 5.75 10.8824H4.25C4.25 13.7004 6.96716 15.75 10 15.75V14.25ZM14.25 10.8824C14.25 12.6126 12.49 14.25 10 14.25V15.75C13.0328 15.75 15.75 13.7004 15.75 10.8824H14.25ZM12.6506 8.25408C13.664 8.89847 14.25 9.86125 14.25 10.8824H15.75C15.75 9.2486 14.8105 7.8499 13.4554 6.98829L12.6506 8.25408ZM12.1502 7.70468C12.2617 7.91459 12.4546 8.09192 12.552 8.17932L13.554 7.06305C13.5119 7.02527 13.4813 6.99528 13.4617 6.97386C13.4522 6.96353 13.4489 6.95914 13.4498 6.96039C13.45 6.96058 13.4608 6.97458 13.4748 7.00095L12.1502 7.70468ZM12.8125 4.99988C12.1502 4.64801 12.15 4.64828 12.1499 4.64856C12.1498 4.64866 12.1497 4.64894 12.1496 4.64914C12.1494 4.64954 12.1491 4.64995 12.1489 4.65038C12.1485 4.65125 12.148 4.65219 12.1474 4.65321C12.1464 4.65525 12.1451 4.65759 12.1438 4.66023C12.1411 4.6655 12.1378 4.67197 12.134 4.67959C12.1264 4.69484 12.1168 4.71476 12.1056 4.73906C12.0833 4.78759 12.0545 4.85404 12.0234 4.936C11.9615 5.09899 11.8885 5.32859 11.8396 5.60439C11.7423 6.1538 11.7358 6.92474 12.1502 7.70469L13.4748 7.00095C13.2642 6.60442 13.2577 6.19889 13.3166 5.86595C13.3459 5.70058 13.39 5.56253 13.4258 5.46817C13.4436 5.42145 13.4587 5.3868 13.4681 5.36639C13.4728 5.35623 13.476 5.34972 13.4773 5.34716C13.4779 5.34588 13.4781 5.3456 13.4777 5.34635C13.4775 5.34673 13.4771 5.34736 13.4767 5.34826C13.4764 5.34871 13.4762 5.34922 13.4759 5.3498C13.4757 5.35009 13.4755 5.3504 13.4754 5.35072C13.4753 5.35088 13.4752 5.35114 13.4751 5.35122C13.475 5.35148 13.4748 5.35174 12.8125 4.99988Z" fill="#F8FFFF"/>
<ellipse cx="8.28125" cy="10.4412" rx="0.78125" ry="0.735294" fill="#F8FFFF" stroke="#F8FFFF" stroke-width="1.5"/>
<ellipse cx="11.7188" cy="10.4412" rx="0.78125" ry="0.735294" fill="#F8FFFF" stroke="#F8FFFF" stroke-width="1.5"/>
<circle cx="10" cy="10" r="9" stroke="#1F8B65" stroke-width="2"/>
<defs>
<filter id="filter0_d_139_1914" x="0" y="0" width="22" height="22" filterUnits="userSpaceOnUse" color-interpolation-filters="sRGB">
<feFlood flood-opacity="0" result="BackgroundImageFix"/>
<feColorMatrix in="SourceAlpha" type="matrix" values="0 0 0 0 0 0 0 0 0 0 0 0 0 0 0 0 0 0 127 0" result="hardAlpha"/>
<feOffset dx="1" dy="1"/>
<feGaussianBlur stdDeviation="0.5"/>
<feComposite in2="hardAlpha" operator="out"/>
<feColorMatrix type="matrix" values="0 0 0 0 0.0431373 0 0 0 0 0.0784314 0 0 0 0 0.0941176 0 0 0 0.5 0"/>
<feBlend mode="normal" in2="BackgroundImageFix" result="effect1_dropShadow_139_1914"/>
<feBlend mode="normal" in="SourceGraphic" in2="effect1_dropShadow_139_1914" result="shape"/>
</filter>
<linearGradient id="paint0_linear_139_1914" x1="-3.77376" y1="26.688" x2="11.2823" y2="0.766227" gradientUnits="userSpaceOnUse">
<stop stop-color="#F8FFFF"/>
<stop offset="0.833345" stop-color="#F8FFFF"/>
<stop offset="1" stop-color="#F8FFFF"/>
</linearGradient>
<linearGradient id="paint1_linear_139_1914" x1="-6.27215" y1="20.1277" x2="11.3387" y2="3.45139" gradientUnits="userSpaceOnUse">
<stop stop-color="#F8FFFF"/>
<stop offset="0.775314" stop-color="#F8FFFF"/>
<stop offset="1" stop-color="#F8FFFF"/>
</linearGradient>
</defs>
</svg>
