<svg width="54" height="42" viewBox="0 0 54 42" fill="none" xmlns="http://www.w3.org/2000/svg">
<path d="M39.8756 7.15636C40.905 6.76917 41.6179 5.95214 41.6179 5.00386C41.6179 4.37033 41.2943 3.76274 40.7184 3.31476C40.1424 2.86678 39.3612 2.61511 38.5467 2.61511C37.7321 2.61511 36.9509 2.86678 36.375 3.31476C35.799 3.76274 35.4754 4.37033 35.4754 5.00386C35.4754 5.96527 36.2053 6.78886 37.2557 7.16949C36.0407 12.2882 34.176 16.0978 27.2362 16.9115C27.2362 16.9115 29.1051 24.1795 37.8464 24.1795C46.5876 24.1795 47.4735 16.9837 47.4735 16.9837C40.3818 17.2659 39.7828 10.3326 39.8756 7.15636Z" fill="#F19534"/>
<path d="M14.6559 7.15636C13.6265 6.76917 12.9135 5.95214 12.9135 5.00386C12.9135 4.37033 13.2371 3.76274 13.8131 3.31476C14.3891 2.86678 15.1702 2.61511 15.9848 2.61511C16.7993 2.61511 17.5805 2.86678 18.1565 3.31476C18.7325 3.76274 19.056 4.37033 19.056 5.00386C19.056 5.96527 18.3262 6.78886 17.2757 7.16949C18.4907 12.2882 20.3554 16.0978 27.2953 16.9115C27.2953 16.9115 25.4264 24.1795 16.6851 24.1795C7.94385 24.1795 7.06213 16.987 7.06213 16.987C14.1496 17.2659 14.7487 10.3326 14.6559 7.15636Z" fill="#F19534"/>
<path d="M37.7283 24.1796C37.7662 24.1796 37.8042 24.1829 37.8422 24.1829C40.2511 24.1829 42.0609 23.6349 43.4194 22.8441L37.7283 24.1796Z" fill="#FFCA28"/>
<path d="M50.3043 5.53215C48.8995 5.3845 47.5579 6.42465 47.3133 7.84872C47.1614 8.73793 47.4693 9.56809 48.0642 10.1029L47.0517 13.3678C47.0517 13.3678 45.5034 21.082 37.6818 22.6045C31.4297 23.8218 29.1642 14.9198 28.6158 12.1701C29.8054 11.7107 30.6281 10.7592 30.6281 9.6534C30.6281 8.10137 29.0123 6.84465 27.0168 6.84465C25.0214 6.84465 23.4056 8.10137 23.4056 9.6534C23.4056 10.7657 24.2409 11.7272 25.4517 12.18C25.0172 14.8936 23.1018 23.5003 16.3518 22.6012C9.50059 21.6857 6.5095 12.7115 5.81762 10.2703C6.64028 9.74528 7.10012 8.81997 6.93137 7.82575C6.68669 6.3984 5.23544 5.37465 3.69137 5.53544C2.14731 5.69622 1.09684 6.98247 1.34153 8.40653C1.51872 9.4434 2.33716 10.267 3.36231 10.5787L8.72856 36.5104C8.72856 36.5104 13.4114 39.3881 27.0168 39.3881C40.6223 39.3881 45.3051 36.5104 45.3051 36.5104L50.684 10.5098C51.5531 10.1554 52.2365 9.35809 52.4053 8.38028C52.6542 6.95294 51.7134 5.67981 50.3043 5.53215Z" fill="#FFCA28"/>
<path d="M14.7994 27.7397C14.4914 28.0088 13.7405 28.5502 13.4747 28.1367C13.1119 27.5724 13.6139 26.7192 14.1877 26.437C14.7614 26.1549 15.2297 26.378 15.3099 26.6306C15.4069 26.9522 15.0736 27.4969 14.7994 27.7397Z" fill="#FFA8A4" fill-opacity="0.1"/>
<path d="M38.8041 28.5633C38.3865 28.514 38.3401 27.3951 39.4622 26.5158C39.998 26.0958 40.7658 26.5945 40.5718 27.2672C40.3861 27.907 39.5677 28.6551 38.8041 28.5633Z" fill="#FFA8A4" fill-opacity="0.1"/>
<path d="M46.0477 32.2251C43.5207 33.2095 37.7241 35.8312 27.0211 35.8312C16.3182 35.8312 10.5216 33.2095 7.99456 32.2251C7.99456 32.2251 7.08752 32.6024 7.08752 32.9962V36.0182C7.08752 36.4218 7.36174 36.7926 7.80893 36.9993C9.78331 37.9049 15.7992 40.0443 27.0253 40.0443C38.2514 40.0443 44.2674 37.9049 46.2417 36.9993C46.4612 36.8987 46.6432 36.7552 46.7697 36.5832C46.8962 36.4111 46.9629 36.2164 46.9632 36.0182V32.9962C46.9547 32.6024 46.0477 32.2251 46.0477 32.2251Z" fill="#FFCA28"/>
<path d="M16.7063 36.3693C17.8875 36.5498 18.2461 36.6286 18.1659 37.1404C18.0014 38.1478 15.3141 37.9083 13.7236 37.5834C10.4372 36.9108 9.77063 36.202 9.77063 35.5687C9.77063 34.9879 10.3444 34.919 11.2303 35.1618C12.2892 35.4539 13.9261 35.9461 16.7063 36.3693Z" fill="#FFF59D"/>
<path d="M46.0476 32.8879C46.0476 32.8879 39.0572 35.9658 27.0211 35.9658C14.985 35.9658 7.99451 32.8879 7.99451 32.8879" stroke="#F19534" stroke-width="4" stroke-miterlimit="10" stroke-linecap="round"/>
<path d="M11.3779 16.2651C13.6223 15.0183 14.8289 12.7837 14.9343 9.22686C14.9428 8.9053 15.0609 8.81014 15.2845 8.79046C15.6431 8.76093 15.7021 9.01358 15.6979 9.19405C15.5967 13.0331 14.9681 15.4317 12.479 16.7836C12.3567 16.8492 11.4834 17.2626 11.1121 16.9772C10.6692 16.6425 11.2345 16.3439 11.3779 16.2651Z" fill="#FFCA28"/>
<path d="M13.4325 5.09901C13.3607 4.50511 13.5379 3.43542 15.5418 2.94979C16.1282 2.8087 16.4911 3.03182 16.5586 3.20573C16.7273 3.63886 16.2379 3.80948 16.0143 3.86526C14.4745 4.25245 14.3986 4.84964 14.0821 5.23026C13.7657 5.61089 13.4578 5.27948 13.4325 5.09901Z" fill="#FFCA28"/>
<path d="M32.9991 15.4776C35.0283 14.0765 36.3741 12.5114 37.26 8.94793C37.3402 8.63293 37.4583 8.54762 37.6777 8.55418C38.0363 8.56074 38.0532 8.81996 38.0152 8.99715C37.2642 12.7968 36.5513 13.8796 34.0496 16.0354C33.7669 16.2782 33.0792 16.4981 32.6911 16.2454C32.341 16.019 32.746 15.6548 32.9991 15.4776Z" fill="#FFCA28"/>
<path d="M35.9859 5.12855C35.9142 4.53465 36.0914 3.46496 38.0953 2.97933C38.6817 2.83824 39.0445 3.06137 39.112 3.23527C39.2808 3.6684 38.7914 3.83902 38.5678 3.8948C37.028 4.28199 36.952 4.87918 36.6356 5.2598C36.3234 5.64043 36.0112 5.30902 35.9859 5.12855Z" fill="#FFCA28"/>
<path d="M13.327 23.5003C8.42483 21.7711 6.98201 17.2593 6.2142 15.3004C6.11295 15.0412 6.16358 14.7951 6.49686 14.7164C6.83014 14.6376 7.02842 14.805 7.13389 15.0642C7.69076 16.485 9.85498 21.2296 14.3226 22.5782C14.6475 22.6767 15.1537 22.9162 14.8795 23.3264C14.6981 23.5921 14.1159 23.7792 13.327 23.5003Z" fill="#FFF59D"/>
<path d="M5.34937 8.08172C5.11312 7.7011 5.01609 7.34016 3.72937 6.92344C3.40453 6.81844 3.18937 6.58547 3.27796 6.32297C3.36656 6.06047 3.70406 5.8636 4.19343 5.92922C5.7839 6.1425 6.12984 7.39922 6.19734 7.83563C6.26062 8.25563 5.58984 8.46235 5.34937 8.08172Z" fill="#FFF59D"/>
<path d="M40.867 23.5003C45.7692 21.7711 47.212 17.2593 47.9798 15.3004C48.0811 15.0412 48.0305 14.7951 47.6972 14.7164C47.3639 14.6376 47.1656 14.805 47.0602 15.0642C46.5033 16.485 44.3391 21.2296 39.8714 22.5782C39.5466 22.6767 39.0403 22.9162 39.3145 23.3264C39.4959 23.5921 40.0781 23.7792 40.867 23.5003Z" fill="#FFF59D"/>
<path d="M48.8447 8.08172C49.0809 7.7011 49.178 7.34016 50.4647 6.92344C50.7895 6.81844 51.0047 6.58547 50.9161 6.32297C50.8275 6.06047 50.49 5.8636 50.0006 5.92922C48.4102 6.1425 48.0642 7.39922 47.9967 7.83563C47.9334 8.25563 48.6084 8.46235 48.8447 8.08172Z" fill="#FFF59D"/>
<path d="M25.0509 9.69614C25.3083 9.28598 25.7597 8.72489 27.232 8.48864C27.7973 8.39676 27.9618 8.20645 27.9112 7.9177C27.81 7.31723 26.8481 7.35989 26.3292 7.45504C24.5995 7.77004 24.2156 8.96442 24.1439 9.43692C24.0722 9.88645 24.7978 10.1063 25.0509 9.69614Z" fill="#FFF59D"/>
</svg>
