<svg width="20" height="22" viewBox="0 0 20 22" fill="none" xmlns="http://www.w3.org/2000/svg">
<path d="M13 21H7V11.6667C7 11.2984 7.26863 11 7.6 11H12.4C12.7314 11 13 11.2984 13 11.6667V21Z" stroke="#9A9A9A" stroke-width="1.5" stroke-linecap="round" stroke-linejoin="round"/>
<path d="M18.4 21.0011H13V16.9494C13 16.4864 13.2686 16.1111 13.6 16.1111H18.4C18.7314 16.1111 19 16.4864 19 16.9494V20.1628C19 20.6258 18.7314 21.0011 18.4 21.0011Z" stroke="#9A9A9A" stroke-width="1.5" stroke-linecap="round" stroke-linejoin="round"/>
<path d="M7.00001 20.9989V14.6646C7.00001 14.2361 6.73138 13.8889 6.40001 13.8889H1.6C1.26863 13.8889 1 14.2361 1 14.6646V20.2233C1 20.6517 1.26863 20.9989 1.6 20.9989H7.00001Z" stroke="#9A9A9A" stroke-width="1.5" stroke-linecap="round" stroke-linejoin="round"/>
<path d="M8.8056 3.34806L9.7147 1.20622C9.8314 0.931258 10.1686 0.931258 10.2853 1.20622L11.1944 3.34806L13.2275 3.69364C13.4884 3.73798 13.5923 4.11086 13.4035 4.32477L11.9326 5.99078L12.2797 8.34443C12.3243 8.64669 12.0515 8.87722 11.8181 8.73443L10 7.62257L8.1819 8.73443C7.94851 8.87722 7.67568 8.64669 7.72026 8.34443L8.0674 5.99078L6.59651 4.32477C6.40766 4.11086 6.51163 3.73798 6.77248 3.69364L8.8056 3.34806Z" stroke="#9A9A9A" stroke-width="1.5" stroke-linecap="round" stroke-linejoin="round"/>
</svg>
