<svg width="94" height="72" viewBox="0 0 94 72" fill="none" xmlns="http://www.w3.org/2000/svg">
<g filter="url(#filter0_d_252_1626)">
<path d="M46.7547 64C70.3675 64 89.5094 44.3005 89.5094 20H4C4 44.3005 23.1419 64 46.7547 64Z" fill="#ACF2EC"/>
</g>
<g filter="url(#filter1_d_252_1626)">
<ellipse cx="47.5" cy="25.5" rx="24.5" ry="25.5" fill="#73D1C0"/>
</g>
<g clip-path="url(#clip0_252_1626)">
<path d="M52.1 29.875C55.8084 30.4411 57.5 31.5775 57.5 33.0818C57.5 35.1077 52.799 36.75 47 36.75C41.201 36.75 36.5 35.1077 36.5 33.0818C36.5 31.5775 37.8916 30.4411 41.6 29.875" stroke="white" stroke-width="2.8125" stroke-linecap="round"/>
<path d="M40.4016 19.9721C40.3238 16.287 43.0588 13.2969 46.4418 13.0215C49.8897 12.7461 52.8709 15.146 53.4801 18.4115C53.7783 20.0246 53.519 21.572 52.7154 23.0015C51.0563 25.9522 49.3842 28.8898 47.7121 31.8405C47.3103 32.5618 46.6881 32.5487 46.2733 31.8274C44.6142 28.8898 42.9421 25.9522 41.283 23.0146C40.7127 22.0048 40.3887 20.9032 40.4016 19.9721ZM46.9992 17.2443C45.366 17.2443 44.018 18.5951 44.0309 20.2475C44.0439 21.8737 45.379 23.2244 46.9862 23.2244C48.6065 23.2244 49.9416 21.8868 49.9545 20.2475C49.9804 18.6082 48.6454 17.2443 46.9992 17.2443Z" fill="white"/>
</g>
<defs>
<filter id="filter0_d_252_1626" x="0" y="20" width="93.5094" height="52" filterUnits="userSpaceOnUse" color-interpolation-filters="sRGB">
<feFlood flood-opacity="0" result="BackgroundImageFix"/>
<feColorMatrix in="SourceAlpha" type="matrix" values="0 0 0 0 0 0 0 0 0 0 0 0 0 0 0 0 0 0 127 0" result="hardAlpha"/>
<feOffset dy="4"/>
<feGaussianBlur stdDeviation="2"/>
<feComposite in2="hardAlpha" operator="out"/>
<feColorMatrix type="matrix" values="0 0 0 0 0.0431373 0 0 0 0 0.0784314 0 0 0 0 0.0941176 0 0 0 0.1 0"/>
<feBlend mode="normal" in2="BackgroundImageFix" result="effect1_dropShadow_252_1626"/>
<feBlend mode="normal" in="SourceGraphic" in2="effect1_dropShadow_252_1626" result="shape"/>
</filter>
<filter id="filter1_d_252_1626" x="19" y="0" width="57" height="59" filterUnits="userSpaceOnUse" color-interpolation-filters="sRGB">
<feFlood flood-opacity="0" result="BackgroundImageFix"/>
<feColorMatrix in="SourceAlpha" type="matrix" values="0 0 0 0 0 0 0 0 0 0 0 0 0 0 0 0 0 0 127 0" result="hardAlpha"/>
<feOffset dy="4"/>
<feGaussianBlur stdDeviation="2"/>
<feComposite in2="hardAlpha" operator="out"/>
<feColorMatrix type="matrix" values="0 0 0 0 0.0431373 0 0 0 0 0.0784314 0 0 0 0 0.0941176 0 0 0 0.1 0"/>
<feBlend mode="normal" in2="BackgroundImageFix" result="effect1_dropShadow_252_1626"/>
<feBlend mode="normal" in="SourceGraphic" in2="effect1_dropShadow_252_1626" result="shape"/>
</filter>
<clipPath id="clip0_252_1626">
<rect width="24" height="25" fill="white" transform="translate(35 13)"/>
</clipPath>
</defs>
</svg>
