<svg xmlns="http://www.w3.org/2000/svg" xmlns:xlink="http://www.w3.org/1999/xlink" width="500" zoomAndPan="magnify" viewBox="0 0 375 374.999991" height="500" preserveAspectRatio="xMidYMid meet" version="1.0"><defs><g/><clipPath id="4eb5e86284"><path d="M 178 97 L 321 97 L 321 225 L 178 225 Z M 178 97 " clip-rule="nonzero"/></clipPath><clipPath id="455204bfe5"><path d="M 160.09375 109.78125 L 309.019531 86.394531 L 327.867188 206.425781 L 178.941406 229.808594 Z M 160.09375 109.78125 " clip-rule="nonzero"/></clipPath><clipPath id="7aa4ecff8c"><path d="M 160.09375 109.78125 L 309.019531 86.394531 L 327.867188 206.425781 L 178.941406 229.808594 Z M 160.09375 109.78125 " clip-rule="nonzero"/></clipPath><clipPath id="9630bc30fc"><path d="M 58 151 L 195 151 L 195 283 L 58 283 Z M 58 151 " clip-rule="nonzero"/></clipPath><clipPath id="6fbbad9983"><path d="M 47.273438 182.628906 L 193.429688 145.695312 L 223.199219 263.492188 L 77.042969 300.425781 Z M 47.273438 182.628906 " clip-rule="nonzero"/></clipPath><clipPath id="da6b093a45"><path d="M 223.054688 263.601562 L 76.902344 300.535156 L 47.132812 182.738281 L 193.289062 145.804688 Z M 223.054688 263.601562 " clip-rule="nonzero"/></clipPath><clipPath id="79fbf08fda"><path d="M 152 166 L 274 166 L 274 200 L 152 200 Z M 152 166 " clip-rule="nonzero"/></clipPath><clipPath id="06682f2db4"><path d="M 80.667969 112.351562 L 252.054688 74.574219 L 277.558594 190.296875 L 106.175781 228.074219 Z M 80.667969 112.351562 " clip-rule="nonzero"/></clipPath><clipPath id="b7d243905c"><path d="M 80.667969 112.351562 L 252.054688 74.574219 L 277.558594 190.296875 L 106.175781 228.074219 Z M 80.667969 112.351562 " clip-rule="nonzero"/></clipPath><clipPath id="ac9d21bdab"><path d="M 111 102 L 153 102 L 153 192 L 111 192 Z M 111 102 " clip-rule="nonzero"/></clipPath><clipPath id="3c5480251f"><path d="M 80.667969 112.351562 L 252.054688 74.574219 L 277.558594 190.296875 L 106.175781 228.074219 Z M 80.667969 112.351562 " clip-rule="nonzero"/></clipPath><clipPath id="626556d565"><path d="M 80.667969 112.351562 L 252.054688 74.574219 L 277.558594 190.296875 L 106.175781 228.074219 Z M 80.667969 112.351562 " clip-rule="nonzero"/></clipPath><clipPath id="a0bb253b17"><path d="M 146 89 L 214 89 L 214 214 L 146 214 Z M 146 89 " clip-rule="nonzero"/></clipPath><clipPath id="cf6bc36709"><path d="M 80.667969 112.351562 L 252.054688 74.574219 L 277.558594 190.296875 L 106.175781 228.074219 Z M 80.667969 112.351562 " clip-rule="nonzero"/></clipPath><clipPath id="54487848cd"><path d="M 80.667969 112.351562 L 252.054688 74.574219 L 277.558594 190.296875 L 106.175781 228.074219 Z M 80.667969 112.351562 " clip-rule="nonzero"/></clipPath><clipPath id="b82ae432e9"><path d="M 228 166 L 229 166 L 229 167 L 228 167 Z M 228 166 " clip-rule="nonzero"/></clipPath><clipPath id="90c035ce4c"><path d="M 80.667969 112.351562 L 252.054688 74.574219 L 277.558594 190.296875 L 106.175781 228.074219 Z M 80.667969 112.351562 " clip-rule="nonzero"/></clipPath><clipPath id="39fc254e09"><path d="M 80.667969 112.351562 L 252.054688 74.574219 L 277.558594 190.296875 L 106.175781 228.074219 Z M 80.667969 112.351562 " clip-rule="nonzero"/></clipPath></defs><g clip-path="url(#4eb5e86284)"><g clip-path="url(#455204bfe5)"><g clip-path="url(#7aa4ecff8c)"><path fill="#acf2ec" d="M 227.875 222.03125 C 210.273438 224.796875 193.421875 225.316406 178.488281 223.921875 C 188.605469 223.871094 199.300781 223.019531 210.289062 221.296875 C 265.359375 212.648438 306.8125 185.308594 302.875 160.226562 C 300.195312 143.167969 277.195312 131.550781 245.414062 128.582031 C 286.023438 128.355469 317.304688 140.890625 320.460938 160.972656 C 324.394531 186.046875 282.945312 213.386719 227.875 222.03125 Z M 214.644531 125.695312 L 214.585938 125.328125 C 236.570312 121.875 237.605469 118.058594 234.460938 98.035156 L 234.828125 97.980469 C 237.972656 118 240.136719 121.316406 262.121094 117.863281 L 262.179688 118.230469 C 240.195312 121.683594 239.148438 125.492188 242.292969 145.515625 L 241.925781 145.574219 C 238.78125 125.550781 236.628906 122.246094 214.644531 125.695312 " fill-opacity="1" fill-rule="evenodd"/></g></g></g><g clip-path="url(#9630bc30fc)"><g clip-path="url(#6fbbad9983)"><g clip-path="url(#da6b093a45)"><path fill="#e3ca93" d="M 145.273438 158.035156 C 162.546875 153.667969 179.28125 151.605469 194.277344 151.625 C 184.207031 152.601562 173.632812 154.429688 162.851562 157.15625 C 108.804688 170.8125 70.03125 201.835938 76.253906 226.453125 C 80.484375 243.195312 104.453125 252.652344 136.371094 252.695312 C 95.953125 256.648438 63.652344 247.03125 58.671875 227.320312 C 52.453125 202.714844 91.226562 171.691406 145.273438 158.035156 Z M 167.277344 252.75 L 167.367188 253.113281 C 145.792969 258.566406 145.113281 262.460938 150.078125 282.109375 L 149.71875 282.203125 C 144.75 262.550781 142.292969 259.449219 120.714844 264.902344 L 120.625 264.539062 C 142.199219 259.089844 142.894531 255.199219 137.925781 235.550781 L 138.289062 235.457031 C 143.253906 255.109375 145.703125 258.203125 167.277344 252.75 " fill-opacity="1" fill-rule="evenodd"/></g></g></g><g clip-path="url(#79fbf08fda)"><g clip-path="url(#06682f2db4)"><g clip-path="url(#b7d243905c)"><path fill="#446232" d="M 273.949219 172.28125 C 217.203125 203.792969 207.890625 152.464844 152.472656 199.058594 C 200.28125 134.179688 224.292969 190.128906 273.949219 172.28125 " fill-opacity="1" fill-rule="nonzero"/></g></g></g><g clip-path="url(#ac9d21bdab)"><g clip-path="url(#3c5480251f)"><g clip-path="url(#626556d565)"><path fill="#67b336" d="M 145.5 174.3125 C 146.722656 165.628906 149.121094 157.476562 152.652344 149.988281 C 149.882812 142.828125 144.085938 137.273438 136.851562 131.621094 C 130.605469 126.738281 122.539062 118.699219 124.660156 102.675781 C 124.660156 102.675781 85.65625 134.980469 142.148438 191.25 L 134.140625 149.707031 C 134.140625 149.707031 141.324219 158.914062 145.5 174.3125 " fill-opacity="1" fill-rule="nonzero"/></g></g></g><g clip-path="url(#a0bb253b17)"><g clip-path="url(#cf6bc36709)"><g clip-path="url(#54487848cd)"><path fill="#1f8b65" d="M 149.75 213.109375 C 147.074219 163.914062 182.238281 140.554688 182.238281 140.554688 L 161.496094 177.429688 C 240.109375 154.945312 206.609375 89.742188 206.609375 89.742188 C 203.757812 102.328125 195.273438 110.558594 183.300781 118.402344 C 131.367188 152.433594 149.75 213.109375 149.75 213.109375 " fill-opacity="1" fill-rule="nonzero"/></g></g></g><g clip-path="url(#b82ae432e9)"><g clip-path="url(#90c035ce4c)"><g clip-path="url(#39fc254e09)"><path fill="#1f8b65" d="M 228.488281 166.140625 C 228.445312 166.054688 228.421875 166.007812 228.421875 166.007812 C 228.421875 166.023438 228.417969 166.035156 228.414062 166.050781 C 228.429688 166.070312 228.457031 166.101562 228.488281 166.140625 " fill-opacity="1" fill-rule="nonzero"/></g></g></g><path stroke-linecap="butt" transform="matrix(0.78714, 0.174227, -0.174227, 0.78714, 76.567375, 159.544559)" fill="none" stroke-linejoin="miter" d="M 14.603461 53.741065 C 14.538781 53.785157 14.500392 53.813504 14.488294 53.826107 C 14.476196 53.83871 14.459367 53.85236 14.435171 53.877566 C 15.511603 55.624341 16.770351 56.804728 18.204589 57.410313 C 19.752834 58.060139 21.584181 58.285035 23.692851 58.081316 C 25.261199 57.947567 27.17961 57.130899 29.447037 55.626581 C 30.319938 55.041328 31.173224 54.65892 32.002164 54.480404 C 32.831103 54.301888 33.641474 54.330948 34.427498 54.5639 C 35.209839 54.80263 35.929987 55.25363 36.580575 55.928454 C 36.695049 56.042069 36.794283 56.154094 36.883009 56.263482 C 37.711946 57.340501 38.003776 58.412339 37.758501 59.478996 C 37.513225 60.545652 36.782378 61.570909 35.571737 62.558449 C 33.239293 64.508902 31.375687 65.774959 29.981967 66.361352 C 28.592435 66.966668 27.047011 67.33851 25.339917 67.473194 C 23.681684 67.626838 22.044075 67.62704 20.426045 67.469068 C 18.207857 67.290096 16.076132 66.784305 14.031919 65.956427 C 12.438965 65.351235 10.912935 64.532726 9.458559 63.499854 C 8.69432 62.984175 7.98584 62.406529 7.337852 61.765867 C 6.685132 61.126252 6.078711 60.426764 5.517542 59.662671 C 3.453382 56.928613 2.072703 53.874545 1.3776 50.509927 L 1.345569 50.477316 L 1.347701 50.442107 C 0.672516 45.261737 1.961701 40.862404 5.216301 37.24884 L 5.248912 37.216809 L 5.284122 37.21894 C 6.226116 36.340489 7.222674 35.574025 8.277478 34.913771 C 9.331235 34.248787 10.444285 33.694742 11.610852 33.247955 C 13.898229 32.394283 16.625309 31.755929 19.786314 31.32921 C 23.061363 30.902061 26.361261 31.551256 29.682323 33.282572 C 31.384365 34.156411 32.772977 35.273316 33.837649 36.63065 C 34.902321 37.987983 35.640454 39.551583 36.042588 41.323544 C 36.847397 44.847495 36.970934 47.311368 36.410563 48.725674 C 36.11828 49.445429 35.716253 50.050523 35.199752 50.542003 C 34.684298 51.038213 34.065964 51.383504 33.351573 51.586292 C 32.116251 51.924233 25.868457 52.642142 14.603461 53.741065 Z M 21.636092 41.524821 C 19.060531 41.345549 17.239168 41.748692 16.187243 42.735839 C 15.264209 43.565431 14.614553 44.284886 14.232497 44.890522 C 15.781304 44.870275 19.643909 44.452029 25.812944 43.647338 C 25.544747 43.220368 25.222884 42.864827 24.853134 42.5844 C 24.483383 42.303972 24.026347 42.077602 23.489391 41.893735 C 22.948751 41.715646 22.336065 41.593205 21.636092 41.524821 Z M 21.636092 41.524821 " stroke="#f8ffff" stroke-width="18.092497" stroke-opacity="1" stroke-miterlimit="4"/><path stroke-linecap="butt" transform="matrix(0.796627, 0.123813, -0.123813, 0.796627, 105.902342, 166.071083)" fill="none" stroke-linejoin="miter" d="M 30.153278 30.51958 C 31.769892 30.856741 33.081671 31.314832 34.08936 31.898641 C 35.411626 32.708154 36.076991 33.708026 36.075134 34.894958 C 36.076789 35.252655 36.063337 35.607797 36.043609 35.954107 C 36.019093 36.301161 35.985746 36.654492 35.938779 37.014842 C 35.8966 37.374449 35.852933 37.72448 35.807033 38.060147 C 35.693331 38.622106 35.542393 39.165334 35.349432 39.690577 C 35.162003 40.219863 34.930319 40.716799 34.660654 41.190218 C 33.742481 42.759837 32.775576 43.542665 31.765471 43.542746 C 31.050076 43.546057 30.340762 43.43074 29.649336 43.209669 C 29.063663 43.006486 28.482778 42.802559 27.897849 42.604164 C 27.359731 42.423011 26.702339 42.294721 25.929716 42.21376 C 25.153049 42.138332 24.265938 42.10949 23.254022 42.129467 C 22.870574 42.154738 22.493403 42.188842 22.108144 42.234009 C 21.727673 42.278432 21.34869 42.332431 20.967152 42.401537 C 20.584869 42.465856 20.215883 42.552625 19.853918 42.653014 C 19.49674 42.752659 19.137006 42.867411 18.778017 42.986951 C 18.419772 43.111279 18.069291 43.254014 17.735406 43.40888 C 16.075881 44.152252 14.79528 45.282948 13.899881 46.809799 C 13.469536 47.479813 13.259403 48.336258 13.257672 49.366259 C 13.26073 50.395515 13.508261 51.578012 13.998033 52.899384 C 14.627115 54.738488 15.941334 56.064117 17.93516 56.872227 C 18.991598 57.296452 20.052628 57.592472 21.118249 57.760288 C 22.18387 57.928104 23.267703 57.960696 24.362726 57.844443 C 26.000683 57.687939 27.741798 57.059377 29.581283 55.959502 C 30.76788 55.265116 31.949309 55.042268 33.11525 55.287659 C 34.281935 55.537837 35.403239 56.221672 36.479907 57.34395 C 36.705328 57.563896 36.896166 57.813735 37.050934 58.083889 C 37.21049 58.3533 37.324723 58.615044 37.403953 58.872422 C 37.483183 59.1298 37.514535 59.394619 37.507584 59.665391 C 37.495101 59.932119 37.449104 60.204056 37.372891 60.470883 C 37.29189 60.738453 37.171098 61.002401 37.00094 61.264215 C 36.834825 61.520497 36.637007 61.762092 36.411529 61.983468 C 35.199545 63.177052 34.135591 64.092647 33.217112 64.745361 C 32.587097 65.171813 31.95996 65.553686 31.330914 65.891724 C 29.582105 66.786271 27.820575 67.315032 26.045582 67.473221 C 24.343894 67.629824 22.647122 67.628752 20.965583 67.473304 C 18.698245 67.271604 16.523618 66.751479 14.438402 65.923248 C 12.778207 65.274134 11.194323 64.421923 9.691538 63.365872 C 8.165881 62.288859 6.819634 60.978014 5.652055 59.428551 C 3.524752 56.625853 2.0998 53.483531 1.377944 50.006372 C 0.213536 44.533627 1.572466 39.963221 5.452177 36.31026 C 7.33804 34.467654 9.488762 33.098749 11.91392 32.202057 C 14.290455 31.308019 16.580457 30.677507 18.780627 30.320842 C 19.403789 30.228892 20.033971 30.150562 20.660854 30.082551 C 21.292525 30.013797 21.917596 29.965682 22.5449 29.93193 C 23.176992 29.897435 23.816848 29.881346 24.464469 29.883665 C 25.09145 29.879385 25.727683 29.903087 26.367637 29.950729 C 27.006848 29.993583 27.64499 30.06112 28.286854 30.152596 C 28.923186 30.240028 29.545575 30.363952 30.153278 30.51958 Z M 30.153278 30.51958 " stroke="#f8ffff" stroke-width="18.092497" stroke-opacity="1" stroke-miterlimit="4"/><path stroke-linecap="butt" transform="matrix(0.802666, 0.0753114, -0.0753114, 0.802666, 135.13189, 170.612302)" fill="none" stroke-linejoin="miter" d="M 2.02057 47.041936 C 3.433088 44.305777 4.981026 42.131169 6.663931 40.513289 C 7.315749 39.887606 7.740998 39.492445 7.940586 39.337454 C 10.61058 36.984569 13.651186 35.365832 17.063308 34.490892 C 19.977795 33.706443 22.828722 33.69688 25.610813 34.457831 C 26.955576 34.837782 28.2776 35.545929 29.581257 36.576994 C 30.9024 37.586952 31.91375 38.718442 32.610937 39.976741 C 33.327432 41.38896 33.788725 43.141452 33.989086 45.225021 C 34.234293 48.253369 33.956207 50.995021 33.148647 53.435956 C 32.966271 53.929994 32.769423 54.42539 32.557649 54.91732 C 32.346328 55.414074 32.104252 55.894247 31.83715 56.367035 C 31.564772 56.835451 31.273549 57.310502 30.962125 57.777716 C 30.019859 59.14604 29.030246 60.372808 27.997203 61.447921 C 26.471838 63.085085 24.733437 64.474575 22.782453 65.621215 C 20.787146 66.762281 18.632608 67.451093 16.322304 67.672728 C 13.942498 67.827884 11.698338 67.56152 9.588921 66.863986 C 7.908863 66.281898 6.370349 65.496732 4.978202 64.508036 C 3.543389 63.479543 2.434937 62.143033 1.648474 60.503783 C 0.839403 58.934787 0.402077 57.126514 0.337399 55.088612 C 0.226374 52.193673 0.787582 49.513055 2.02057 47.041936 Z M 12.34933 52.092801 C 12.35183 53.260549 13.069219 54.526686 14.501948 55.896036 C 15.850999 57.151572 17.174953 57.465343 18.47381 56.83735 C 18.90043 56.612391 19.232675 56.367087 19.470094 56.096615 C 19.702689 55.826595 19.864124 55.524319 19.954401 55.189787 C 20.160124 54.425896 20.122222 53.606997 19.855168 52.731734 C 19.248533 50.778749 17.770743 49.603425 15.411245 49.197017 C 15.321695 49.17622 15.237422 49.159794 15.158426 49.14774 C 15.079429 49.135685 15.010081 49.122726 14.941185 49.11459 C 14.871837 49.101631 14.808218 49.097866 14.739775 49.094555 C 14.671784 49.096068 14.603794 49.097581 14.535804 49.099093 C 13.776451 49.097342 13.217769 49.315225 12.874232 49.751386 C 12.526323 50.192823 12.350903 50.96847 12.34933 52.092801 Z M 12.34933 52.092801 " stroke="#f8ffff" stroke-width="18.092497" stroke-opacity="1" stroke-miterlimit="4"/><path stroke-linecap="butt" transform="matrix(0.80602, 0.0166044, -0.0166044, 0.80602, 161.731093, 173.437064)" fill="none" stroke-linejoin="miter" d="M -0.201478 27.662762 C -0.0654051 25.798964 0.179629 24.519328 0.538468 23.823756 C 0.762312 23.397513 1.150961 22.972721 1.699471 22.544636 C 2.248082 22.121395 3.041855 21.601024 4.071401 20.998254 C 9.119796 18.102762 15.086086 16.477488 21.975013 16.117488 C 28.974461 15.711594 34.873017 17.620698 39.675423 21.839857 C 41.896966 23.815017 43.65989 26.347261 44.95955 29.446377 C 45.612151 31.012841 45.925553 32.581446 45.899456 34.137659 C 45.878302 35.698617 45.497474 37.208828 44.756872 38.663448 C 44.464555 39.294648 44.107966 39.864169 43.682458 40.381801 C 43.256851 40.894588 42.772015 41.355285 42.232694 41.758949 C 41.33594 42.455911 40.538166 43.252606 39.844219 44.148936 C 39.330363 44.847702 39.093529 45.584378 39.138861 46.373398 C 39.135559 46.683632 39.166068 46.988323 39.220498 47.277982 C 39.279873 47.572386 39.363169 47.851758 39.475332 48.120842 L 39.509242 48.120144 L 39.509941 48.154054 C 39.685823 48.693221 39.924183 49.206869 40.21553 49.704887 C 40.527053 50.241259 40.885721 50.713658 41.291435 51.11724 C 41.538838 51.364153 41.776054 51.587044 41.998338 51.790858 C 42.220523 51.989827 42.45714 52.183652 42.703146 52.362746 C 43.088086 52.698906 43.624396 53.090104 44.321865 53.540985 C 44.680687 53.785602 45.260197 54.156525 46.069982 54.648709 L 46.103892 54.648011 C 46.237083 54.761579 46.374719 54.855671 46.507211 54.935329 C 46.644548 55.014888 46.786828 55.099191 46.943741 55.188039 C 47.080778 55.253064 47.227804 55.332423 47.384717 55.421271 C 47.54173 55.514964 47.698643 55.603812 47.855556 55.69266 C 48.659599 56.141345 49.267676 56.487448 49.670196 56.736012 C 50.435884 57.204872 50.889188 57.801327 51.034853 58.520431 C 51.180518 59.239535 51.006261 59.955537 50.512181 60.673281 C 49.815685 61.681129 48.872828 62.727977 47.683412 63.804135 C 47.283677 64.161307 46.893132 64.494057 46.52621 64.797242 C 46.154443 65.100528 45.791965 65.384236 45.429189 65.653412 C 45.071256 65.922488 44.712625 66.157654 44.353295 66.35891 C 42.827228 67.325692 41.147658 67.42814 39.304797 66.661611 C 36.681062 65.630081 34.021737 63.576706 31.331767 60.50623 C 28.726445 57.545476 26.653033 55.232867 25.106788 53.573348 C 24.834664 53.302712 24.558394 53.066086 24.278079 52.868314 C 23.997663 52.665698 23.732379 52.491849 23.472439 52.342121 C 23.212598 52.197237 22.948512 52.081519 22.68008 51.990122 C 22.074499 51.765126 21.348301 52.036942 20.496542 52.800825 C 19.531614 53.717277 19.146287 55.47959 19.350149 58.082722 C 19.486362 59.519279 19.613739 60.762165 19.737224 61.816124 C 19.860709 62.870082 19.990191 63.744603 20.125768 64.444529 C 20.212558 64.893451 20.212449 65.358702 20.125443 65.840282 C 20.033593 66.321962 19.808651 66.694918 19.450719 66.963994 C 19.002142 67.302786 18.328233 67.525062 17.434036 67.640409 C 16.984216 67.6836 16.510075 67.722446 16.016457 67.756846 C 15.522839 67.791247 15.009544 67.811514 14.471828 67.822591 C 13.934113 67.833668 13.415475 67.829813 12.920659 67.806082 C 12.430787 67.787096 11.960193 67.762866 11.508976 67.738236 C 11.193499 67.715657 10.872977 67.683489 10.552257 67.641633 C 10.226592 67.595032 9.905572 67.538643 9.589196 67.472465 C 9.185524 67.40324 8.80952 67.265595 8.465829 67.049744 C 8.117394 66.838836 7.806815 66.583532 7.539137 66.293419 C 6.552969 65.237847 5.509594 62.816785 4.408912 59.025389 C 4.118571 58.105718 3.863538 57.25317 3.6535 56.467543 C 3.438618 55.682016 3.239765 54.968854 3.061787 54.327957 C 2.883908 53.691904 2.731648 53.123173 2.610051 52.631351 C 2.483509 52.134784 2.38753 51.710284 2.322014 51.353004 C 2.275621 51.218262 2.239017 51.088165 2.202512 50.962912 C 2.170951 50.842404 2.144036 50.712107 2.121864 50.576866 C 2.077521 50.306385 2.018746 50.041047 1.950181 49.771064 C 1.23189 46.427346 0.614883 42.824686 0.0992615 38.967928 C -0.417358 35.062727 -0.514375 31.294271 -0.201478 27.662762 Z M 26.751839 29.210825 C 25.58657 28.871354 24.396327 28.731098 23.185954 28.789957 C 21.975482 28.843971 20.730346 29.097399 19.450448 29.545398 C 19.070844 29.703454 18.740081 29.87989 18.458359 30.084394 C 18.176538 30.284053 17.943859 30.516624 17.750432 30.772619 C 17.56195 31.033357 17.388899 31.337396 17.231578 31.699266 C 17.025959 32.304448 17.01795 33.327191 17.197762 34.76285 C 17.284797 35.45893 17.40819 36.037949 17.568143 36.509596 C 17.723252 36.981342 17.88041 37.317348 18.039718 37.522459 C 18.466206 37.993461 18.972353 38.331971 19.568046 38.547477 C 20.16364 38.75814 20.887334 38.835312 21.738831 38.764461 C 22.61415 38.673734 23.52258 38.543554 24.463923 38.364232 C 25.385389 38.161089 26.237139 37.867301 27.024117 37.487613 C 28.258022 36.92425 29.153932 35.951065 29.716494 34.558269 C 30.208686 33.278388 30.028421 32.055977 29.175698 30.891036 C 28.818028 30.46708 28.442378 30.111343 28.048847 29.828669 C 27.655417 29.55084 27.224629 29.341629 26.751839 29.210825 Z M 26.751839 29.210825 " stroke="#f8ffff" stroke-width="18.092497" stroke-opacity="1" stroke-miterlimit="4"/><path stroke-linecap="butt" transform="matrix(0.805087, -0.0421911, 0.0421911, 0.805087, 203.236765, 174.080732)" fill="none" stroke-linejoin="miter" d="M 2.019657 47.045341 C 3.434463 44.305347 4.979783 42.130167 6.66555 40.515472 C 7.314547 39.889616 7.737965 39.494537 7.940387 39.335326 C 10.611027 36.981374 13.650588 35.364846 17.063653 34.490834 C 19.977088 33.707085 22.825757 33.696257 25.609661 34.458348 C 26.957939 34.839531 28.279549 35.544398 29.579078 36.578041 C 30.904068 37.588759 31.912283 38.718731 32.608054 39.977888 C 33.324997 41.388565 33.786333 43.14004 33.987479 45.227221 C 34.236458 48.253338 33.956946 50.994604 33.149702 53.436505 C 32.968492 53.931613 32.772767 54.42596 32.557687 54.919293 C 32.347446 55.412879 32.103841 55.895013 31.83655 56.366202 C 31.56442 56.837137 31.272936 57.307057 30.961843 57.780803 C 30.016838 59.148052 29.0308 60.372444 27.999144 61.448887 C 26.472293 63.086466 24.735288 64.475286 22.783037 65.619932 C 20.787238 66.762295 18.630897 67.449864 16.319362 67.673216 C 13.943382 67.830115 11.70126 67.562205 9.593248 66.864646 C 7.906222 66.281336 6.370421 65.497317 4.981261 64.507496 C 3.545742 63.47643 2.436634 62.142241 1.649098 60.504674 C 0.843497 58.934087 0.404304 57.130401 0.336613 55.089029 C 0.226454 52.191487 0.784074 49.513314 2.019657 47.045341 Z M 12.351751 52.094274 C 12.348958 53.258599 13.068669 54.523862 14.505792 55.894649 C 15.851974 57.149076 17.174516 57.465834 18.473924 56.835248 C 18.902729 56.615122 19.231189 56.365477 19.468476 56.096498 C 19.705762 55.827519 19.867151 55.525452 19.957735 55.185709 C 20.157729 54.424728 20.122911 53.607774 19.853533 52.730007 C 19.247248 50.78171 17.766111 49.602694 15.414707 49.198054 C 15.323786 49.173881 15.237197 49.159639 15.160286 49.145905 C 15.083121 49.137009 15.011048 49.123528 14.94356 49.115139 C 14.876325 49.101912 14.808584 49.098362 14.740843 49.094812 C 14.672848 49.0961 14.604853 49.097389 14.536858 49.098678 C 13.775157 49.097576 13.220293 49.315948 12.872266 49.753794 C 12.524239 50.19164 12.352516 50.968659 12.351751 52.094274 Z M 12.351751 52.094274 " stroke="#f8ffff" stroke-width="18.092497" stroke-opacity="1" stroke-miterlimit="4"/><path stroke-linecap="butt" transform="matrix(0.801636, -0.0855847, 0.0855847, 0.801636, 230.554501, 172.618436)" fill="none" stroke-linejoin="miter" d="M 29.244642 24.395533 C 29.245121 24.756175 29.217722 25.104095 29.157626 25.438779 C 29.102348 25.773977 29.018163 26.106088 28.905584 26.430295 C 28.797309 26.759835 28.661669 27.071835 28.502454 27.376445 C 28.348571 27.676751 28.161477 27.968638 27.946505 28.247804 C 27.73635 28.527484 27.493498 28.793928 27.223797 29.038013 C 26.552303 29.668013 25.8047 30.143702 24.985291 30.470411 C 24.165882 30.797121 23.28636 30.95661 22.345698 30.958512 C 22.028931 30.958803 21.723858 30.940851 21.420329 30.908445 C 21.116799 30.87604 20.825477 30.820573 20.546363 30.742046 C 20.26243 30.663004 19.984859 30.570023 19.702984 30.471709 C 19.421624 30.368578 19.151957 30.247203 18.895012 30.09795 C 18.637553 29.953515 18.391273 29.795654 18.155657 29.629187 C 17.920042 29.462719 17.688027 29.262526 17.463401 29.038758 C 16.794532 28.411843 16.280489 27.704 15.93521 26.921592 C 15.585628 26.133851 15.412389 25.291844 15.410675 24.395057 C 15.411877 22.558121 16.094893 20.998637 17.464542 19.71712 C 18.140339 19.092452 18.88261 18.621067 19.705808 18.304508 C 20.523674 17.992251 21.403196 17.832763 22.343344 17.835679 C 24.253578 17.834961 25.877564 18.461517 27.224938 19.716375 C 28.56974 20.995323 29.245844 22.558598 29.244642 24.395533 Z M 15.478691 42.836305 C 15.482223 42.164229 15.482104 41.389433 15.477818 40.516736 C 15.478865 39.639735 15.478094 38.962327 15.480838 38.480207 C 15.478764 37.997574 15.483377 37.452307 15.49898 36.84974 C 15.510279 36.24184 15.526448 35.7709 15.548001 35.432102 C 15.569039 35.098121 15.595924 34.755019 15.632959 34.408128 C 15.665176 34.060723 15.714281 33.78334 15.784579 33.581313 C 15.849544 33.383589 15.931209 33.212012 16.018395 33.080008 C 16.152354 32.875031 16.331406 32.704106 16.556581 32.557597 C 16.781755 32.411087 17.048233 32.288479 17.366165 32.185982 C 17.678765 32.08779 17.980186 32.003022 18.275246 31.932193 C 18.564974 31.865668 18.947271 31.799281 19.417319 31.732516 C 21.144369 31.439361 22.545307 31.462235 23.624952 31.801651 C 24.541628 32.070068 25.30497 32.268512 25.91395 32.406621 C 26.138335 32.450069 26.382181 32.539449 26.650305 32.675278 C 26.787127 32.762978 26.976107 32.909848 27.222575 33.111584 L 27.66387 33.451069 C 27.729967 33.5166 27.800367 33.587463 27.879374 33.668991 C 27.958896 33.7457 28.042721 33.827742 28.135153 33.920449 C 28.269592 34.076115 28.366516 34.21803 28.436076 34.342404 C 28.50615 34.461961 28.55817 34.6137 28.602286 34.793833 L 28.603503 34.828073 L 28.774308 35.6016 C 28.837695 35.78379 28.918674 36.075061 29.007093 36.479201 L 29.008825 36.508623 C 29.053369 36.912952 29.006012 37.721662 28.871572 38.935267 C 28.759112 40.03427 28.703281 44.847557 28.704593 53.370309 C 28.727662 62.100044 27.4585 67.963022 24.900894 70.969392 C 23.711995 72.474867 22.358343 73.743474 20.830303 74.774184 C 19.30708 75.805409 17.689317 76.626753 15.982859 77.229096 C 13.83274 78.061825 11.28539 78.598756 8.345113 78.845222 C 6.754458 79.001881 5.39112 78.763743 4.256129 78.121174 C 3.125441 77.483937 2.286436 76.488012 1.74772 75.144066 C 0.761178 72.563333 0.529474 70.44327 1.042971 68.78285 C 1.357646 67.79802 2.159499 66.99677 3.448528 66.379098 C 4.737557 65.761427 6.539019 65.227701 8.852913 64.777921 C 10.196963 64.512096 11.314003 64.090468 12.198703 63.51734 C 13.083403 62.944213 13.757606 62.197554 14.216494 61.276849 C 14.679685 60.361476 14.953194 59.260176 15.040809 57.983098 C 15.267205 53.763017 15.411388 48.715521 15.478691 42.836305 Z M 15.478691 42.836305 " stroke="#f8ffff" stroke-width="18.092497" stroke-opacity="1" stroke-miterlimit="4"/><path stroke-linecap="butt" transform="matrix(0.79576, -0.129267, 0.129267, 0.79576, 253.567224, 170.255276)" fill="none" stroke-linejoin="miter" d="M 14.506181 53.234736 C 13.918395 54.224104 14.021637 55.310999 14.805565 56.498652 C 15.546208 57.620366 16.835427 57.903426 18.678783 57.343826 C 19.103588 57.206663 19.496469 57.054496 19.852643 56.886549 C 20.213599 56.719378 20.522724 56.538879 20.779239 56.349834 C 21.036532 56.156006 21.265905 55.952734 21.469691 55.72567 C 21.782871 55.369112 22.040214 54.993666 22.241719 54.599332 C 22.448006 54.205774 22.579447 53.819693 22.646382 53.43786 C 22.694138 53.234539 22.709312 53.050468 22.697467 52.881644 C 22.685621 52.712819 22.657873 52.551229 22.614224 52.396874 C 22.571351 52.237736 22.505464 52.099403 22.427681 51.973865 C 22.349897 51.848326 22.242641 51.722909 22.107466 51.588047 C 21.528264 50.98344 20.798661 50.609661 19.921888 50.477051 C 19.61024 50.431334 19.293931 50.414313 18.977744 50.426764 C 18.667116 50.43521 18.340707 50.480363 18.0033 50.563 C 17.666671 50.640855 17.319043 50.756193 16.959641 50.913798 C 15.975945 51.318517 15.153084 52.09298 14.506181 53.234736 Z M 20.391201 40.819084 C 18.32863 40.371126 16.289216 40.324544 14.267399 40.683346 C 12.765385 40.954777 11.508909 41.467358 10.5012 42.231429 C 9.155258 43.264538 7.616122 43.613389 5.889354 43.273978 C 4.116313 42.917232 2.85043 41.916366 2.085369 40.280166 C 1.300814 38.552441 1.504174 37.058831 2.689888 35.80334 C 3.657468 34.772583 4.531263 33.986758 5.316056 33.446644 C 5.876792 33.04685 6.44889 32.69799 7.031572 32.404846 C 7.793834 32.003428 8.565126 31.667291 9.340667 31.395659 C 10.110648 31.128032 10.91435 30.92479 11.746213 30.789936 C 13.312853 30.543729 14.887869 30.397059 16.456134 30.352378 C 16.994532 30.331844 17.525039 30.329663 18.056445 30.352173 C 18.583068 30.373906 19.106583 30.414769 19.637333 30.471534 C 20.1633 30.527522 20.682931 30.592298 21.200231 30.671422 C 21.717531 30.750546 22.222158 30.847247 22.71489 30.956742 C 24.332435 31.273501 25.891762 31.767339 27.39287 32.438255 C 29.031897 33.136484 30.567061 34.53453 32.000811 36.647517 C 32.742765 37.700721 33.270884 38.861544 33.585167 40.129987 C 33.89945 41.39843 34.009342 42.746574 33.922854 44.185537 C 33.74114 46.875509 33.641115 50.059816 33.617219 53.742464 C 33.598298 57.666452 34.057163 60.583204 34.999373 62.488713 L 35.032972 62.523624 L 35.065916 62.59279 C 35.177127 62.905385 35.289237 63.242671 35.403022 63.599864 C 35.56099 64.047684 35.62821 64.510216 35.605459 64.982676 C 35.580276 65.832721 35.232084 66.586116 34.561661 67.238077 C 33.933262 67.842868 33.000622 68.265698 31.767746 68.512126 C 30.557885 68.737749 29.432899 68.68263 28.402355 68.348323 C 27.461904 68.03356 26.774154 67.764756 26.349449 67.538682 C 25.498364 67.066627 24.857643 66.417665 24.432846 65.58779 C 24.384777 65.521076 24.347828 65.44635 24.311655 65.366841 C 24.280266 65.28811 24.240087 65.203042 24.195126 65.117197 C 23.321381 65.721403 22.546567 66.169871 21.875468 66.463378 C 21.223377 66.73052 20.5616 66.966635 19.890914 67.166941 C 19.214668 67.371253 18.531843 67.525409 17.836103 67.638195 C 17.140364 67.750981 16.422143 67.820845 15.68222 67.843004 C 13.43686 67.885689 11.307938 67.574217 9.287441 66.897471 C 8.90692 66.762024 8.531958 66.622572 8.162556 66.479115 C 7.789148 66.330097 7.427636 66.168286 7.068455 65.992127 C 6.710051 65.811185 6.361989 65.627015 6.025046 65.434833 C 5.688103 65.242651 5.348708 65.035344 5.011644 64.813689 C 3.6705 63.9135 2.635132 62.792997 1.91588 61.448951 C 1.247682 60.123016 0.909294 58.610125 0.906274 56.906271 C 0.90746 54.481503 1.560465 52.304976 2.860506 50.375912 C 3.511607 49.48028 4.106456 48.658959 4.644277 47.916734 C 5.251144 47.112092 6.493301 46.022853 8.379538 44.655353 C 9.365129 43.936778 10.444527 43.365979 11.608943 42.936621 C 12.777364 42.512822 14.041923 42.222452 15.41296 42.062282 C 17.725205 41.819383 20.167137 41.926442 22.750771 42.400138 C 22.458889 41.930564 21.67129 41.400099 20.391201 40.819084 Z M 20.391201 40.819084 " stroke="#f8ffff" stroke-width="18.092497" stroke-opacity="1" stroke-miterlimit="4"/><path stroke-linecap="butt" transform="matrix(0.786694, -0.17623, 0.17623, 0.786694, 281.072535, 165.818396)" fill="none" stroke-linejoin="miter" d="M 12.721767 38.598177 C 13.548485 37.656227 14.427705 36.745899 15.343122 35.873473 C 16.827134 34.413402 18.319654 33.203506 19.821741 32.239058 C 20.046386 32.100697 20.269973 31.967063 20.493559 31.833429 C 20.717145 31.699796 20.950187 31.568281 21.185839 31.447281 C 21.417823 31.320494 21.661872 31.20634 21.905921 31.092187 C 22.805333 30.668026 23.692713 30.519233 24.565944 30.655263 C 25.483769 30.83604 26.787896 31.619756 28.472536 33.010078 C 28.517131 33.054825 28.566455 33.100632 28.620506 33.147498 C 28.675617 33.189636 28.728609 33.24123 28.771086 33.295434 C 28.817232 33.355426 28.860769 33.404902 28.905364 33.449649 C 29.623693 34.122 30.035033 34.83482 30.134656 35.587051 C 30.235337 36.334553 29.982883 37.062533 29.380471 37.756806 C 29.200989 37.915216 29.01311 38.066779 28.82262 38.207827 C 28.631072 38.353603 28.434795 38.49832 28.235909 38.632521 C 27.872936 38.834238 27.549907 39.034972 27.256306 39.237333 C 25.6895 40.246868 24.214002 41.336442 22.830873 42.501327 C 21.452472 43.667271 20.155924 44.911135 18.945957 46.23398 C 19.753214 46.84184 20.729473 47.581901 21.873673 48.458892 C 23.419952 49.624569 24.990854 50.835485 26.58638 52.09164 C 27.121752 52.494598 27.641881 52.899106 28.132582 53.301988 C 28.628011 53.705929 29.110315 54.101964 29.581612 54.480638 C 30.05185 54.864039 30.500565 55.232689 30.926699 55.591314 C 31.61999 56.153783 32.192544 56.634586 32.643301 57.03845 C 33.089331 57.441256 33.440874 57.778207 33.688474 58.047184 C 34.40544 58.90295 34.668844 59.76635 34.477627 60.642114 C 34.287469 61.513149 33.731542 62.376729 32.809846 63.232853 C 31.063363 64.822812 29.702781 65.70972 28.738616 65.890967 C 27.730838 66.067409 26.427576 65.700981 24.836737 64.778557 C 24.117458 64.354263 23.386682 63.892636 22.648076 63.399463 C 21.90947 62.906289 21.166212 62.367385 20.427758 61.784869 C 18.921423 60.618209 17.520242 59.425451 16.222097 58.216051 C 15.815935 57.856934 15.44442 57.520475 15.107553 57.206673 C 15.580047 58.732622 16.09744 60.124632 16.659734 61.382704 C 16.813602 61.759785 16.983205 62.155287 17.161206 62.557635 C 17.363262 63.029923 17.498557 63.512082 17.56709 64.004112 C 17.790653 65.732498 16.747687 66.819656 14.437131 67.270315 C 14.054416 67.338509 13.662811 67.379885 13.2602 67.403899 C 10.588001 67.58486 8.751402 67.471362 7.739886 67.066016 C 6.821874 66.68658 6.080887 66.048877 5.517983 65.148177 C 5.270612 64.745185 5.051609 64.348548 4.862034 63.953537 C 4.6714 63.563255 4.499678 63.177209 4.342141 62.794341 C 3.198115 59.965988 2.312186 55.874656 1.681744 50.50983 C 1.055461 45.170763 1.033172 36.669973 1.615934 25.002733 L 1.613892 24.967517 L 1.616578 24.933361 C 1.773265 23.657596 2.076788 22.568651 2.526086 21.671254 C 2.591525 21.512125 2.662184 21.374026 2.74491 21.248561 C 2.821847 21.126765 2.909301 21.002359 3.010938 20.88113 C 3.113635 20.755174 3.217883 20.644461 3.330527 20.540594 C 3.442113 20.441456 3.562095 20.349164 3.686806 20.257931 C 3.806788 20.165639 3.936227 20.075466 4.070394 19.986351 L 4.10455 19.989037 C 4.755752 19.653271 5.553942 19.414982 6.492272 19.282568 C 7.391719 19.146408 8.211693 19.076857 8.951137 19.078644 C 10.073713 19.07688 10.99358 19.292873 11.712858 19.717166 C 12.629583 20.235344 13.058811 21.24513 12.990026 22.749134 C 12.897643 23.915169 12.811375 29.198889 12.721767 38.598177 Z M 12.721767 38.598177 " stroke="#f8ffff" stroke-width="18.092497" stroke-opacity="1" stroke-miterlimit="4"/><g fill="#1f8b65" fill-opacity="1"><g transform="translate(64.894188, 212.282953)"><g><path d="M 13.8125 -7.890625 C 13.738281 -7.867188 13.695312 -7.851562 13.6875 -7.84375 C 13.6875 -7.84375 13.671875 -7.832031 13.640625 -7.8125 C 14.179688 -6.25 14.96875 -5.101562 16 -4.375 C 17.101562 -3.59375 18.5 -3.097656 20.1875 -2.890625 C 21.457031 -2.734375 23.113281 -3.046875 25.15625 -3.828125 C 25.945312 -4.128906 26.679688 -4.273438 27.359375 -4.265625 C 28.046875 -4.265625 28.679688 -4.101562 29.265625 -3.78125 C 29.847656 -3.457031 30.328125 -2.976562 30.703125 -2.34375 C 30.785156 -2.238281 30.851562 -2.132812 30.90625 -2.03125 C 31.375 -1.039062 31.414062 -0.148438 31.03125 0.640625 C 30.644531 1.441406 29.890625 2.128906 28.765625 2.703125 C 26.597656 3.835938 24.910156 4.507812 23.703125 4.71875 C 22.503906 4.957031 21.222656 4.972656 19.859375 4.765625 C 18.523438 4.609375 17.238281 4.328125 16 3.921875 C 14.28125 3.398438 12.691406 2.628906 11.234375 1.609375 C 10.085938 0.859375 9.023438 -0.0507812 8.046875 -1.125 C 7.546875 -1.65625 7.09375 -2.222656 6.6875 -2.828125 C 6.28125 -3.441406 5.925781 -4.101562 5.625 -4.8125 C 4.476562 -7.320312 3.921875 -9.96875 3.953125 -12.75 L 3.921875 -12.78125 L 3.9375 -12.796875 C 4.3125 -16.984375 6.097656 -20.222656 9.296875 -22.515625 L 9.328125 -22.53125 L 9.359375 -22.53125 C 10.253906 -23.039062 11.171875 -23.46875 12.109375 -23.8125 C 13.054688 -24.15625 14.023438 -24.40625 15.015625 -24.5625 C 16.972656 -24.820312 19.234375 -24.84375 21.796875 -24.625 C 24.441406 -24.394531 26.921875 -23.3125 29.234375 -21.375 C 30.421875 -20.382812 31.316406 -19.257812 31.921875 -18 C 32.523438 -16.75 32.832031 -15.394531 32.84375 -13.9375 C 32.863281 -11.019531 32.535156 -9.054688 31.859375 -8.046875 C 31.492188 -7.523438 31.0625 -7.113281 30.5625 -6.8125 C 30.070312 -6.519531 29.53125 -6.351562 28.9375 -6.3125 C 27.90625 -6.269531 22.863281 -6.796875 13.8125 -7.890625 Z M 21.46875 -16.28125 C 19.46875 -16.875 17.96875 -16.875 16.96875 -16.28125 C 16.101562 -15.789062 15.46875 -15.335938 15.0625 -14.921875 C 16.28125 -14.671875 19.390625 -14.328125 24.390625 -13.890625 C 24.253906 -14.273438 24.0625 -14.609375 23.8125 -14.890625 C 23.570312 -15.171875 23.253906 -15.425781 22.859375 -15.65625 C 22.460938 -15.894531 22 -16.101562 21.46875 -16.28125 Z M 21.46875 -16.28125 "/></g></g></g><g fill="#1f8b65" fill-opacity="1"><g transform="translate(97.606848, 219.445103)"><g><path d="M 28.546875 -25.328125 C 29.785156 -24.859375 30.769531 -24.332031 31.5 -23.75 C 32.457031 -22.925781 32.863281 -22.039062 32.71875 -21.09375 C 32.675781 -20.820312 32.625 -20.546875 32.5625 -20.265625 C 32.5 -19.992188 32.425781 -19.71875 32.34375 -19.4375 C 32.257812 -19.15625 32.179688 -18.878906 32.109375 -18.609375 C 31.953125 -18.191406 31.765625 -17.78125 31.546875 -17.375 C 31.335938 -16.976562 31.097656 -16.609375 30.828125 -16.265625 C 29.890625 -15.128906 29.019531 -14.625 28.21875 -14.75 C 27.644531 -14.84375 27.097656 -15.019531 26.578125 -15.28125 C 26.128906 -15.507812 25.6875 -15.742188 25.25 -15.984375 C 24.832031 -16.191406 24.320312 -16.375 23.71875 -16.53125 C 23.113281 -16.695312 22.410156 -16.832031 21.609375 -16.9375 C 21.304688 -16.957031 21 -16.972656 20.6875 -16.984375 C 20.382812 -16.992188 20.070312 -16.992188 19.75 -16.984375 C 19.4375 -16.984375 19.128906 -16.960938 18.828125 -16.921875 C 18.535156 -16.890625 18.238281 -16.84375 17.9375 -16.78125 C 17.632812 -16.726562 17.335938 -16.664062 17.046875 -16.59375 C 15.640625 -16.207031 14.476562 -15.46875 13.5625 -14.375 C 13.144531 -13.882812 12.867188 -13.226562 12.734375 -12.40625 C 12.609375 -11.582031 12.664062 -10.613281 12.90625 -9.5 C 13.175781 -7.957031 14.054688 -6.742188 15.546875 -5.859375 C 16.328125 -5.378906 17.128906 -5.003906 17.953125 -4.734375 C 18.785156 -4.472656 19.644531 -4.316406 20.53125 -4.265625 C 21.863281 -4.179688 23.332031 -4.472656 24.9375 -5.140625 C 25.976562 -5.535156 26.945312 -5.5625 27.84375 -5.21875 C 28.738281 -4.882812 29.539062 -4.203125 30.25 -3.171875 C 30.40625 -2.960938 30.523438 -2.742188 30.609375 -2.515625 C 30.703125 -2.285156 30.765625 -2.0625 30.796875 -1.84375 C 30.828125 -1.625 30.820312 -1.410156 30.78125 -1.203125 C 30.75 -0.992188 30.679688 -0.785156 30.578125 -0.578125 C 30.484375 -0.367188 30.347656 -0.175781 30.171875 0 C 30.003906 0.1875 29.828125 0.359375 29.640625 0.515625 C 28.523438 1.304688 27.5625 1.90625 26.75 2.3125 C 26.1875 2.582031 25.640625 2.8125 25.109375 3 C 23.585938 3.488281 22.113281 3.6875 20.6875 3.59375 C 19.3125 3.507812 17.960938 3.300781 16.640625 2.96875 C 14.867188 2.53125 13.203125 1.847656 11.640625 0.921875 C 10.398438 0.203125 9.242188 -0.671875 8.171875 -1.703125 C 7.085938 -2.742188 6.179688 -3.953125 5.453125 -5.328125 C 4.085938 -7.828125 3.335938 -10.507812 3.203125 -13.375 C 2.953125 -17.882812 4.601562 -21.351562 8.15625 -23.78125 C 9.875 -25.007812 11.757812 -25.832031 13.8125 -26.25 C 15.8125 -26.664062 17.707031 -26.882812 19.5 -26.90625 C 20.019531 -26.894531 20.53125 -26.875 21.03125 -26.84375 C 21.539062 -26.820312 22.046875 -26.785156 22.546875 -26.734375 C 23.054688 -26.679688 23.570312 -26.613281 24.09375 -26.53125 C 24.582031 -26.457031 25.078125 -26.359375 25.578125 -26.234375 C 26.085938 -26.117188 26.59375 -25.988281 27.09375 -25.84375 C 27.59375 -25.695312 28.078125 -25.523438 28.546875 -25.328125 Z M 28.546875 -25.328125 "/></g></g></g><g fill="#1f8b65" fill-opacity="1"><g transform="translate(130.086024, 224.390925)"><g><path d="M 3.125 -15.859375 C 4.46875 -17.953125 5.875 -19.582031 7.34375 -20.75 C 7.90625 -21.207031 8.273438 -21.492188 8.453125 -21.609375 C 10.765625 -23.296875 13.328125 -24.363281 16.140625 -24.8125 C 18.535156 -25.21875 20.820312 -25.015625 23 -24.203125 C 24.0625 -23.796875 25.070312 -23.125 26.03125 -22.1875 C 27.019531 -21.28125 27.75 -20.296875 28.21875 -19.234375 C 28.675781 -18.046875 28.910156 -16.601562 28.921875 -14.90625 C 28.890625 -12.457031 28.457031 -10.285156 27.625 -8.390625 C 27.445312 -8.015625 27.253906 -7.632812 27.046875 -7.25 C 26.835938 -6.863281 26.609375 -6.488281 26.359375 -6.125 C 26.109375 -5.769531 25.832031 -5.421875 25.53125 -5.078125 C 24.675781 -4.046875 23.800781 -3.132812 22.90625 -2.34375 C 21.550781 -1.144531 20.046875 -0.160156 18.390625 0.609375 C 16.703125 1.367188 14.921875 1.757812 13.046875 1.78125 C 11.128906 1.71875 9.351562 1.328125 7.71875 0.609375 C 6.40625 0.015625 5.226562 -0.722656 4.1875 -1.609375 C 3.101562 -2.546875 2.3125 -3.707031 1.8125 -5.09375 C 1.289062 -6.414062 1.070312 -7.894531 1.15625 -9.53125 C 1.289062 -11.863281 1.945312 -13.972656 3.125 -15.859375 Z M 11.03125 -11.03125 C 10.9375 -10.09375 11.421875 -9.019531 12.484375 -7.8125 C 13.460938 -6.707031 14.5 -6.359375 15.59375 -6.765625 C 15.957031 -6.921875 16.242188 -7.09375 16.453125 -7.28125 C 16.660156 -7.46875 16.8125 -7.695312 16.90625 -7.96875 C 17.113281 -8.5625 17.148438 -9.222656 17.015625 -9.953125 C 16.679688 -11.566406 15.582031 -12.628906 13.71875 -13.140625 C 13.644531 -13.148438 13.578125 -13.164062 13.515625 -13.1875 C 13.453125 -13.207031 13.394531 -13.222656 13.34375 -13.234375 C 13.289062 -13.242188 13.234375 -13.25 13.171875 -13.25 C 13.117188 -13.257812 13.066406 -13.269531 13.015625 -13.28125 C 12.398438 -13.332031 11.9375 -13.191406 11.625 -12.859375 C 11.3125 -12.535156 11.113281 -11.925781 11.03125 -11.03125 Z M 11.03125 -11.03125 "/></g></g></g><g fill="#56534a" fill-opacity="1"><g transform="translate(160.618601, 227.44043)"><g><path d="M 0.5 -31.71875 C 0.632812 -33.21875 0.851562 -34.242188 1.15625 -34.796875 C 1.34375 -35.140625 1.660156 -35.476562 2.109375 -35.8125 C 2.554688 -36.144531 3.203125 -36.546875 4.046875 -37.015625 C 8.160156 -39.265625 13 -40.472656 18.5625 -40.640625 C 24.21875 -40.859375 28.941406 -39.226562 32.734375 -35.75 C 34.492188 -34.113281 35.875 -32.039062 36.875 -29.53125 C 37.351562 -28.25 37.570312 -26.976562 37.53125 -25.71875 C 37.488281 -24.46875 37.164062 -23.257812 36.5625 -22.09375 C 36.3125 -21.59375 36.007812 -21.140625 35.65625 -20.734375 C 35.300781 -20.328125 34.90625 -19.960938 34.46875 -19.640625 C 33.738281 -19.097656 33.082031 -18.472656 32.5 -17.765625 C 32.070312 -17.210938 31.875 -16.613281 31.90625 -15.96875 C 31.894531 -15.71875 31.90625 -15.472656 31.9375 -15.234375 C 31.976562 -15.003906 32.046875 -14.78125 32.140625 -14.5625 L 32.171875 -14.5625 L 32.171875 -14.53125 C 32.304688 -14.101562 32.484375 -13.679688 32.703125 -13.265625 C 32.953125 -12.835938 33.238281 -12.457031 33.5625 -12.125 C 33.75 -11.914062 33.929688 -11.726562 34.109375 -11.5625 C 34.296875 -11.394531 34.488281 -11.238281 34.6875 -11.09375 C 34.976562 -10.8125 35.398438 -10.488281 35.953125 -10.125 C 36.242188 -9.90625 36.703125 -9.59375 37.328125 -9.1875 L 37.359375 -9.1875 C 37.460938 -9.101562 37.566406 -9.023438 37.671875 -8.953125 C 37.785156 -8.878906 37.90625 -8.804688 38.03125 -8.734375 C 38.132812 -8.679688 38.25 -8.613281 38.375 -8.53125 C 38.5 -8.457031 38.625 -8.382812 38.75 -8.3125 C 39.394531 -7.945312 39.878906 -7.660156 40.203125 -7.453125 C 40.804688 -7.054688 41.160156 -6.566406 41.265625 -5.984375 C 41.378906 -5.410156 41.226562 -4.832031 40.8125 -4.25 C 40.238281 -3.445312 39.460938 -2.625 38.484375 -1.78125 C 38.148438 -1.5 37.832031 -1.238281 37.53125 -1 C 37.226562 -0.757812 36.929688 -0.535156 36.640625 -0.328125 C 36.359375 -0.117188 36.070312 0.0625 35.78125 0.21875 C 34.53125 0.976562 33.164062 1.035156 31.6875 0.390625 C 29.59375 -0.484375 27.488281 -2.1875 25.375 -4.71875 C 23.320312 -7.144531 21.6875 -9.039062 20.46875 -10.40625 C 20.257812 -10.632812 20.039062 -10.832031 19.8125 -11 C 19.582031 -11.164062 19.363281 -11.304688 19.15625 -11.421875 C 18.957031 -11.535156 18.753906 -11.632812 18.546875 -11.71875 C 18.054688 -11.914062 17.460938 -11.710938 16.765625 -11.109375 C 15.972656 -10.390625 15.632812 -8.972656 15.75 -6.859375 C 15.832031 -5.703125 15.914062 -4.695312 16 -3.84375 C 16.082031 -3 16.175781 -2.296875 16.28125 -1.734375 C 16.34375 -1.359375 16.332031 -0.976562 16.25 -0.59375 C 16.164062 -0.21875 15.976562 0.078125 15.6875 0.296875 C 15.320312 0.554688 14.773438 0.726562 14.046875 0.8125 C 13.679688 0.832031 13.300781 0.851562 12.90625 0.875 C 12.507812 0.894531 12.09375 0.90625 11.65625 0.90625 C 11.21875 0.90625 10.800781 0.890625 10.40625 0.859375 C 10.007812 0.835938 9.628906 0.8125 9.265625 0.78125 C 9.015625 0.757812 8.753906 0.726562 8.484375 0.6875 C 8.222656 0.65625 7.972656 0.601562 7.734375 0.53125 C 7.410156 0.476562 7.109375 0.359375 6.828125 0.171875 C 6.546875 -0.00390625 6.300781 -0.207031 6.09375 -0.4375 C 5.3125 -1.3125 4.507812 -3.285156 3.6875 -6.359375 C 3.46875 -7.109375 3.273438 -7.796875 3.109375 -8.421875 C 2.953125 -9.054688 2.804688 -9.632812 2.671875 -10.15625 C 2.535156 -10.675781 2.421875 -11.132812 2.328125 -11.53125 C 2.242188 -11.9375 2.179688 -12.285156 2.140625 -12.578125 C 2.109375 -12.691406 2.078125 -12.796875 2.046875 -12.890625 C 2.015625 -12.992188 1.992188 -13.097656 1.984375 -13.203125 C 1.953125 -13.421875 1.910156 -13.640625 1.859375 -13.859375 C 1.335938 -16.566406 0.898438 -19.476562 0.546875 -22.59375 C 0.203125 -25.75 0.1875 -28.789062 0.5 -31.71875 Z M 22.203125 -30.03125 C 21.265625 -30.3125 20.304688 -30.4375 19.328125 -30.40625 C 18.347656 -30.382812 17.34375 -30.207031 16.3125 -29.875 C 16 -29.75 15.726562 -29.609375 15.5 -29.453125 C 15.269531 -29.296875 15.070312 -29.113281 14.90625 -28.90625 C 14.75 -28.695312 14.601562 -28.453125 14.46875 -28.171875 C 14.3125 -27.691406 14.289062 -26.867188 14.40625 -25.703125 C 14.457031 -25.148438 14.546875 -24.679688 14.671875 -24.296875 C 14.796875 -23.910156 14.914062 -23.632812 15.03125 -23.46875 C 15.375 -23.082031 15.78125 -22.796875 16.25 -22.609375 C 16.726562 -22.429688 17.3125 -22.363281 18 -22.40625 C 18.707031 -22.46875 19.441406 -22.5625 20.203125 -22.6875 C 20.953125 -22.832031 21.644531 -23.050781 22.28125 -23.34375 C 23.28125 -23.769531 24.015625 -24.539062 24.484375 -25.65625 C 24.910156 -26.6875 24.789062 -27.675781 24.125 -28.625 C 23.84375 -28.976562 23.546875 -29.269531 23.234375 -29.5 C 22.921875 -29.726562 22.578125 -29.90625 22.203125 -30.03125 Z M 22.203125 -30.03125 "/></g></g></g><g fill="#56534a" fill-opacity="1"><g transform="translate(206.063565, 228.021534)"><g><path d="M 0.78125 -16.15625 C 1.8125 -18.40625 2.972656 -20.21875 4.265625 -21.59375 C 4.742188 -22.132812 5.0625 -22.46875 5.21875 -22.59375 C 7.269531 -24.613281 9.648438 -26.046875 12.359375 -26.890625 C 14.671875 -27.648438 16.960938 -27.78125 19.234375 -27.28125 C 20.347656 -27.039062 21.445312 -26.53125 22.53125 -25.75 C 23.644531 -24.988281 24.507812 -24.113281 25.125 -23.125 C 25.757812 -22.019531 26.203125 -20.628906 26.453125 -18.953125 C 26.773438 -16.535156 26.660156 -14.320312 26.109375 -12.3125 C 25.984375 -11.914062 25.84375 -11.507812 25.6875 -11.09375 C 25.539062 -10.6875 25.367188 -10.285156 25.171875 -9.890625 C 24.984375 -9.503906 24.769531 -9.117188 24.53125 -8.734375 C 23.832031 -7.585938 23.09375 -6.5625 22.3125 -5.65625 C 21.15625 -4.269531 19.804688 -3.070312 18.265625 -2.0625 C 16.722656 -1.0625 15.023438 -0.421875 13.171875 -0.140625 C 11.253906 0.0859375 9.4375 -0.0351562 7.71875 -0.515625 C 6.332031 -0.910156 5.0625 -1.472656 3.90625 -2.203125 C 2.707031 -2.984375 1.753906 -4.015625 1.046875 -5.296875 C 0.335938 -6.523438 -0.0859375 -7.960938 -0.234375 -9.609375 C -0.441406 -11.929688 -0.101562 -14.113281 0.78125 -16.15625 Z M 9.3125 -12.515625 C 9.351562 -11.578125 9.984375 -10.585938 11.203125 -9.546875 C 12.347656 -8.597656 13.429688 -8.398438 14.453125 -8.953125 C 14.785156 -9.160156 15.039062 -9.375 15.21875 -9.59375 C 15.394531 -9.820312 15.515625 -10.070312 15.578125 -10.34375 C 15.703125 -10.96875 15.632812 -11.628906 15.375 -12.328125 C 14.820312 -13.867188 13.582031 -14.757812 11.65625 -15 C 11.582031 -15 11.515625 -15.003906 11.453125 -15.015625 C 11.390625 -15.023438 11.332031 -15.03125 11.28125 -15.03125 C 11.226562 -15.039062 11.171875 -15.046875 11.109375 -15.046875 C 11.054688 -15.046875 11.003906 -15.039062 10.953125 -15.03125 C 10.335938 -15 9.894531 -14.796875 9.625 -14.421875 C 9.363281 -14.054688 9.257812 -13.421875 9.3125 -12.515625 Z M 9.3125 -12.515625 "/></g></g></g><g fill="#56534a" fill-opacity="1"><g transform="translate(236.288676, 226.328035)"><g><path d="M 19.796875 -36.65625 C 19.828125 -36.363281 19.832031 -36.078125 19.8125 -35.796875 C 19.800781 -35.523438 19.765625 -35.253906 19.703125 -34.984375 C 19.640625 -34.710938 19.554688 -34.453125 19.453125 -34.203125 C 19.359375 -33.953125 19.238281 -33.703125 19.09375 -33.453125 C 18.945312 -33.210938 18.773438 -32.984375 18.578125 -32.765625 C 18.085938 -32.203125 17.53125 -31.753906 16.90625 -31.421875 C 16.28125 -31.085938 15.585938 -30.878906 14.828125 -30.796875 C 14.585938 -30.773438 14.34375 -30.765625 14.09375 -30.765625 C 13.84375 -30.765625 13.597656 -30.78125 13.359375 -30.8125 C 13.128906 -30.851562 12.894531 -30.90625 12.65625 -30.96875 C 12.425781 -31.03125 12.203125 -31.101562 11.984375 -31.1875 C 11.773438 -31.28125 11.566406 -31.382812 11.359375 -31.5 C 11.160156 -31.625 10.957031 -31.769531 10.75 -31.9375 C 10.15625 -32.375 9.679688 -32.890625 9.328125 -33.484375 C 8.984375 -34.085938 8.773438 -34.75 8.703125 -35.46875 C 8.535156 -36.945312 8.953125 -38.257812 9.953125 -39.40625 C 10.441406 -39.957031 11 -40.394531 11.625 -40.71875 C 12.257812 -41.050781 12.953125 -41.253906 13.703125 -41.328125 C 15.242188 -41.492188 16.601562 -41.128906 17.78125 -40.234375 C 18.957031 -39.328125 19.628906 -38.132812 19.796875 -36.65625 Z M 10.34375 -20.703125 C 10.28125 -21.242188 10.210938 -21.863281 10.140625 -22.5625 C 10.066406 -23.257812 10.007812 -23.800781 9.96875 -24.1875 C 9.925781 -24.570312 9.878906 -25.007812 9.828125 -25.5 C 9.785156 -25.988281 9.757812 -26.367188 9.75 -26.640625 C 9.738281 -26.910156 9.734375 -27.1875 9.734375 -27.46875 C 9.734375 -27.75 9.75 -27.972656 9.78125 -28.140625 C 9.820312 -28.304688 9.867188 -28.445312 9.921875 -28.5625 C 10.023438 -28.738281 10.160156 -28.894531 10.328125 -29.03125 C 10.492188 -29.164062 10.695312 -29.285156 10.9375 -29.390625 C 11.175781 -29.503906 11.410156 -29.597656 11.640625 -29.671875 C 11.867188 -29.742188 12.171875 -29.832031 12.546875 -29.9375 C 13.910156 -30.320312 15.035156 -30.421875 15.921875 -30.234375 C 16.679688 -30.097656 17.3125 -30.003906 17.8125 -29.953125 C 17.988281 -29.929688 18.191406 -29.878906 18.421875 -29.796875 C 18.546875 -29.734375 18.710938 -29.628906 18.921875 -29.484375 L 19.296875 -29.25 C 19.359375 -29.207031 19.425781 -29.15625 19.5 -29.09375 C 19.570312 -29.039062 19.648438 -28.984375 19.734375 -28.921875 C 19.847656 -28.804688 19.9375 -28.703125 20 -28.609375 C 20.0625 -28.523438 20.125 -28.414062 20.1875 -28.28125 L 20.1875 -28.25 L 20.390625 -27.640625 C 20.460938 -27.492188 20.550781 -27.265625 20.65625 -26.953125 L 20.65625 -26.921875 C 20.71875 -26.597656 20.75 -25.945312 20.75 -24.96875 C 20.75 -24.070312 21.113281 -20.207031 21.84375 -13.375 C 22.613281 -6.382812 22.101562 -1.570312 20.3125 1.0625 C 19.476562 2.351562 18.5 3.484375 17.375 4.453125 C 16.238281 5.398438 15.007812 6.191406 13.6875 6.828125 C 12.03125 7.679688 10.039062 8.332031 7.71875 8.78125 C 6.4375 9.03125 5.316406 8.945312 4.359375 8.53125 C 3.398438 8.125 2.644531 7.40625 2.09375 6.375 C 1.082031 4.40625 0.71875 2.722656 1 1.328125 C 1.164062 0.523438 1.738281 -0.179688 2.71875 -0.796875 C 3.695312 -1.410156 5.09375 -1.992188 6.90625 -2.546875 C 7.96875 -2.867188 8.828125 -3.296875 9.484375 -3.828125 C 10.140625 -4.367188 10.613281 -5.023438 10.90625 -5.796875 C 11.195312 -6.578125 11.328125 -7.476562 11.296875 -8.5 C 11.117188 -11.914062 10.800781 -15.984375 10.34375 -20.703125 Z M 10.34375 -20.703125 "/></g></g></g><g fill="#56534a" fill-opacity="1"><g transform="translate(262.228146, 223.571216)"><g><path d="M 9.75 -12.828125 C 9.414062 -11.972656 9.640625 -11.117188 10.421875 -10.265625 C 11.148438 -9.472656 12.21875 -9.421875 13.625 -10.109375 C 13.9375 -10.265625 14.222656 -10.429688 14.484375 -10.609375 C 14.742188 -10.796875 14.96875 -10.976562 15.15625 -11.15625 C 15.34375 -11.34375 15.503906 -11.539062 15.640625 -11.75 C 15.828125 -12.070312 15.976562 -12.398438 16.09375 -12.734375 C 16.207031 -13.066406 16.269531 -13.394531 16.28125 -13.71875 C 16.28125 -13.882812 16.265625 -14.03125 16.234375 -14.15625 C 16.203125 -14.289062 16.15625 -14.414062 16.09375 -14.53125 C 16.039062 -14.65625 15.972656 -14.765625 15.890625 -14.859375 C 15.816406 -14.953125 15.722656 -15.039062 15.609375 -15.125 C 15.066406 -15.53125 14.4375 -15.734375 13.71875 -15.734375 C 13.46875 -15.722656 13.21875 -15.691406 12.96875 -15.640625 C 12.71875 -15.585938 12.460938 -15.507812 12.203125 -15.40625 C 11.941406 -15.300781 11.679688 -15.160156 11.421875 -14.984375 C 10.691406 -14.546875 10.132812 -13.828125 9.75 -12.828125 Z M 12.828125 -23.484375 C 11.128906 -23.566406 9.5 -23.332031 7.9375 -22.78125 C 6.789062 -22.375 5.863281 -21.800781 5.15625 -21.0625 C 4.21875 -20.0625 3.039062 -19.585938 1.625 -19.640625 C 0.164062 -19.703125 -0.96875 -20.332031 -1.78125 -21.53125 C -2.632812 -22.800781 -2.671875 -24.015625 -1.890625 -25.171875 C -1.253906 -26.109375 -0.664062 -26.847656 -0.125 -27.390625 C 0.28125 -27.773438 0.695312 -28.125 1.125 -28.4375 C 1.6875 -28.863281 2.253906 -29.234375 2.828125 -29.546875 C 3.410156 -29.859375 4.019531 -30.117188 4.65625 -30.328125 C 5.882812 -30.734375 7.117188 -31.054688 8.359375 -31.296875 C 8.773438 -31.390625 9.191406 -31.457031 9.609375 -31.5 C 10.035156 -31.550781 10.460938 -31.585938 10.890625 -31.609375 C 11.328125 -31.628906 11.753906 -31.640625 12.171875 -31.640625 C 12.585938 -31.648438 13.003906 -31.644531 13.421875 -31.625 C 14.742188 -31.570312 16.046875 -31.378906 17.328125 -31.046875 C 18.722656 -30.703125 20.128906 -29.785156 21.546875 -28.296875 C 22.273438 -27.554688 22.84375 -26.695312 23.25 -25.71875 C 23.65625 -24.75 23.914062 -23.691406 24.03125 -22.546875 C 24.25 -20.367188 24.585938 -17.816406 25.046875 -14.890625 C 25.535156 -11.765625 26.28125 -9.507812 27.28125 -8.125 L 27.3125 -8.09375 L 27.34375 -8.03125 C 27.457031 -7.789062 27.585938 -7.539062 27.734375 -7.28125 C 27.910156 -6.945312 28.019531 -6.59375 28.0625 -6.21875 C 28.15625 -5.53125 27.976562 -4.882812 27.53125 -4.28125 C 27.113281 -3.71875 26.429688 -3.257812 25.484375 -2.90625 C 24.535156 -2.570312 23.628906 -2.472656 22.765625 -2.609375 C 21.984375 -2.734375 21.40625 -2.851562 21.03125 -2.96875 C 20.300781 -3.238281 19.710938 -3.675781 19.265625 -4.28125 C 19.210938 -4.332031 19.171875 -4.382812 19.140625 -4.4375 C 19.109375 -4.5 19.0625 -4.5625 19 -4.625 C 18.394531 -4.019531 17.84375 -3.566406 17.34375 -3.265625 C 16.851562 -2.960938 16.351562 -2.6875 15.84375 -2.4375 C 15.332031 -2.1875 14.804688 -1.972656 14.265625 -1.796875 C 13.734375 -1.617188 13.175781 -1.476562 12.59375 -1.375 C 10.8125 -1.039062 9.070312 -1.007812 7.375 -1.28125 C 7.050781 -1.34375 6.734375 -1.40625 6.421875 -1.46875 C 6.109375 -1.539062 5.796875 -1.625 5.484375 -1.71875 C 5.179688 -1.8125 4.882812 -1.910156 4.59375 -2.015625 C 4.300781 -2.128906 4.007812 -2.257812 3.71875 -2.40625 C 2.53125 -2.9375 1.5625 -3.6875 0.8125 -4.65625 C 0.101562 -5.632812 -0.363281 -6.800781 -0.59375 -8.15625 C -0.90625 -10.082031 -0.664062 -11.898438 0.125 -13.609375 C 0.519531 -14.398438 0.890625 -15.117188 1.234375 -15.765625 C 1.597656 -16.492188 2.441406 -17.523438 3.765625 -18.859375 C 4.460938 -19.554688 5.25 -20.148438 6.125 -20.640625 C 7 -21.128906 7.972656 -21.523438 9.046875 -21.828125 C 10.847656 -22.328125 12.8125 -22.554688 14.9375 -22.515625 C 14.632812 -22.859375 13.929688 -23.179688 12.828125 -23.484375 Z M 12.828125 -23.484375 "/></g></g></g><g fill="#56534a" fill-opacity="1"><g transform="translate(292.879912, 218.526906)"><g><path d="M 5 -24.578125 C 5.5 -25.472656 6.03125 -26.34375 6.59375 -27.1875 C 7.488281 -28.59375 8.445312 -29.816406 9.46875 -30.859375 C 9.625 -30.984375 9.773438 -31.117188 9.921875 -31.265625 C 10.078125 -31.421875 10.234375 -31.566406 10.390625 -31.703125 C 10.554688 -31.835938 10.726562 -31.972656 10.90625 -32.109375 C 11.539062 -32.597656 12.210938 -32.867188 12.921875 -32.921875 C 13.679688 -32.941406 14.84375 -32.554688 16.40625 -31.765625 C 16.4375 -31.734375 16.476562 -31.703125 16.53125 -31.671875 C 16.59375 -31.648438 16.644531 -31.617188 16.6875 -31.578125 C 16.738281 -31.546875 16.789062 -31.515625 16.84375 -31.484375 C 17.519531 -31.078125 17.960938 -30.585938 18.171875 -30.015625 C 18.378906 -29.453125 18.304688 -28.84375 17.953125 -28.1875 C 17.847656 -28.03125 17.726562 -27.875 17.59375 -27.71875 C 17.46875 -27.570312 17.34375 -27.429688 17.21875 -27.296875 C 16.957031 -27.066406 16.734375 -26.84375 16.546875 -26.625 C 15.492188 -25.5625 14.523438 -24.453125 13.640625 -23.296875 C 12.753906 -22.140625 11.957031 -20.929688 11.25 -19.671875 C 11.988281 -19.328125 12.890625 -18.921875 13.953125 -18.453125 C 15.367188 -17.796875 16.816406 -17.113281 18.296875 -16.40625 C 18.785156 -16.1875 19.257812 -15.960938 19.71875 -15.734375 C 20.175781 -15.503906 20.625 -15.28125 21.0625 -15.0625 C 21.5 -14.84375 21.914062 -14.632812 22.3125 -14.4375 C 22.96875 -14.113281 23.503906 -13.832031 23.921875 -13.59375 C 24.335938 -13.351562 24.671875 -13.148438 24.921875 -12.984375 C 25.640625 -12.429688 26 -11.796875 26 -11.078125 C 26 -10.359375 25.71875 -9.578125 25.15625 -8.734375 C 24.039062 -7.171875 23.128906 -6.238281 22.421875 -5.9375 C 21.660156 -5.613281 20.566406 -5.675781 19.140625 -6.125 C 18.503906 -6.332031 17.847656 -6.566406 17.171875 -6.828125 C 16.503906 -7.085938 15.832031 -7.375 15.15625 -7.6875 C 13.769531 -8.34375 12.457031 -9.035156 11.21875 -9.765625 C 10.84375 -9.972656 10.492188 -10.171875 10.171875 -10.359375 C 10.796875 -9.242188 11.441406 -8.242188 12.109375 -7.359375 C 12.304688 -7.085938 12.515625 -6.804688 12.734375 -6.515625 C 12.960938 -6.179688 13.144531 -5.828125 13.28125 -5.453125 C 13.769531 -4.128906 13.144531 -3.085938 11.40625 -2.328125 C 11.113281 -2.203125 10.8125 -2.101562 10.5 -2.03125 C 8.425781 -1.40625 6.957031 -1.164062 6.09375 -1.3125 C 5.300781 -1.445312 4.609375 -1.816406 4.015625 -2.421875 C 3.753906 -2.703125 3.507812 -2.976562 3.28125 -3.25 C 3.0625 -3.53125 2.863281 -3.804688 2.6875 -4.078125 C 1.28125 -6.097656 -0.140625 -9.160156 -1.578125 -13.265625 C -3.015625 -17.347656 -4.535156 -24.035156 -6.140625 -33.328125 L -6.140625 -33.375 C -6.242188 -34.40625 -6.195312 -35.3125 -6 -36.09375 C -5.976562 -36.238281 -5.945312 -36.363281 -5.90625 -36.46875 C -5.863281 -36.582031 -5.8125 -36.695312 -5.75 -36.8125 C -5.695312 -36.925781 -5.632812 -37.035156 -5.5625 -37.140625 C -5.488281 -37.242188 -5.410156 -37.335938 -5.328125 -37.421875 C -5.253906 -37.515625 -5.171875 -37.609375 -5.078125 -37.703125 L -5.046875 -37.703125 C -4.597656 -38.085938 -4.015625 -38.410156 -3.296875 -38.671875 C -2.617188 -38.953125 -1.988281 -39.15625 -1.40625 -39.28125 C -0.519531 -39.476562 0.238281 -39.472656 0.875 -39.265625 C 1.6875 -39.023438 2.203125 -38.300781 2.421875 -37.09375 C 2.554688 -36.164062 3.414062 -31.992188 5 -24.578125 Z M 5 -24.578125 "/></g></g></g></svg>