<svg width="23" height="23" viewBox="0 0 23 23" fill="none" xmlns="http://www.w3.org/2000/svg">
<path fill-rule="evenodd" clip-rule="evenodd" d="M17.1806 1.44446C17.1806 1.44446 15.9306 1.44446 14.0556 2.62093C12.8613 3.37031 12.1742 4.35835 11.8327 4.97697C11.7406 4.9749 11.6483 4.97387 11.5557 4.97387C6.03282 4.97387 1.55566 8.66093 1.55566 13.2092C1.55566 17.7574 6.03282 21.4445 11.5557 21.4445C17.0785 21.4445 21.5557 17.7574 21.5557 13.2092C21.5557 10.5538 20.0297 8.192 17.6605 6.68603C17.4521 6.49895 17.2628 6.30491 17.1806 6.15034C15.9306 3.7974 17.1806 1.44446 17.1806 1.44446Z" fill="white"/>
<path d="M14.0556 2.62093L14.4543 3.25623L14.0556 2.62093ZM17.1806 1.44446L17.843 1.79632C17.9665 1.56386 17.9591 1.28367 17.8235 1.05806C17.6878 0.832456 17.4439 0.694458 17.1806 0.694458V1.44446ZM11.8327 4.97697L11.8159 5.72678C12.0949 5.73303 12.3543 5.5838 12.4892 5.33944L11.8327 4.97697ZM17.6605 6.68603L17.1593 7.24405C17.1901 7.27171 17.2232 7.29678 17.2581 7.31899L17.6605 6.68603ZM17.1806 6.15034L16.5183 6.50221V6.50221L17.1806 6.15034ZM14.4543 3.25623C15.3271 2.70854 16.0395 2.44394 16.516 2.31579C16.7548 2.25158 16.9357 2.22128 17.0494 2.207C17.1063 2.19986 17.1465 2.19673 17.1687 2.19538C17.1799 2.1947 17.1865 2.19447 17.1886 2.19441C17.1896 2.19438 17.1894 2.19439 17.1881 2.19441C17.1875 2.19442 17.1865 2.19443 17.1853 2.19444C17.1846 2.19445 17.184 2.19445 17.1832 2.19445C17.1828 2.19445 17.1824 2.19446 17.182 2.19446C17.1818 2.19446 17.1814 2.19446 17.1813 2.19446C17.181 2.19446 17.1806 2.19446 17.1806 1.44446C17.1806 0.694458 17.1803 0.694458 17.1799 0.694458C17.1798 0.694458 17.1795 0.694459 17.1792 0.694459C17.1787 0.69446 17.1782 0.694462 17.1777 0.694464C17.1766 0.694468 17.1754 0.694474 17.1742 0.694483C17.1717 0.694501 17.169 0.694531 17.1659 0.694576C17.1597 0.694668 17.1523 0.694823 17.1438 0.69508C17.1266 0.695593 17.1045 0.696513 17.0778 0.698135C17.0244 0.701379 16.9522 0.707434 16.8627 0.718677C16.6834 0.74117 16.4346 0.784391 16.1265 0.867246C15.5093 1.03321 14.6592 1.35685 13.657 1.98563L14.4543 3.25623ZM12.4892 5.33944C12.7916 4.79185 13.4009 3.91715 14.4543 3.25623L13.657 1.98563C12.3217 2.82346 11.5568 3.92485 11.1761 4.61449L12.4892 5.33944ZM11.5557 5.72387C11.6427 5.72387 11.7294 5.72484 11.8159 5.72678L11.8495 4.22715C11.7518 4.22497 11.6539 4.22387 11.5557 4.22387V5.72387ZM2.30566 13.2092C2.30566 9.20479 6.30423 5.72387 11.5557 5.72387V4.22387C5.7614 4.22387 0.805664 8.11707 0.805664 13.2092H2.30566ZM11.5557 20.6945C6.30423 20.6945 2.30566 17.2135 2.30566 13.2092H0.805664C0.805664 18.3012 5.7614 22.1945 11.5557 22.1945V20.6945ZM20.8057 13.2092C20.8057 17.2135 16.8071 20.6945 11.5557 20.6945V22.1945C17.3499 22.1945 22.3057 18.3012 22.3057 13.2092H20.8057ZM17.2581 7.31899C19.4565 8.71636 20.8057 10.8602 20.8057 13.2092H22.3057C22.3057 10.2474 20.6028 7.66764 18.0628 6.05308L17.2581 7.31899ZM16.5183 6.50221C16.6707 6.78912 16.9579 7.06317 17.1593 7.24405L18.1616 6.12802C18.0675 6.04356 17.9874 5.96603 17.926 5.8991C17.8586 5.82564 17.8401 5.79311 17.843 5.79847L16.5183 6.50221ZM17.1806 1.44446C16.5183 1.09259 16.5182 1.09287 16.518 1.09316C16.518 1.09326 16.5178 1.09356 16.5177 1.09377C16.5175 1.09421 16.5172 1.09467 16.5169 1.09518C16.5164 1.09619 16.5158 1.09735 16.5151 1.09865C16.5138 1.10126 16.5121 1.10445 16.5102 1.10822C16.5063 1.11575 16.5013 1.12559 16.4953 1.13767C16.4833 1.16182 16.4672 1.19496 16.4481 1.23649C16.4099 1.31949 16.3592 1.43649 16.3037 1.58278C16.193 1.87445 16.0613 2.28787 15.9734 2.78427C15.798 3.77485 15.7915 5.13403 16.5183 6.50221L17.843 5.79847C17.3198 4.81371 17.3133 3.81995 17.4504 3.04582C17.5188 2.65987 17.6214 2.33799 17.7061 2.11495C17.7482 2.0039 17.7854 1.91869 17.8106 1.86382C17.8233 1.83642 17.8328 1.81671 17.8385 1.80524C17.8414 1.79951 17.8433 1.79586 17.844 1.79434C17.8444 1.79359 17.8445 1.79337 17.8444 1.79369C17.8443 1.79386 17.8441 1.79416 17.8439 1.7946C17.8438 1.79482 17.8437 1.79507 17.8435 1.79536C17.8434 1.7955 17.8433 1.79574 17.8433 1.79581C17.8431 1.79607 17.843 1.79632 17.1806 1.44446Z" fill="#9A9A9A"/>
<ellipse cx="8.11816" cy="12.3268" rx="1.5625" ry="1.47059" fill="#9A9A9A"/>
<ellipse cx="14.9932" cy="12.3268" rx="1.5625" ry="1.47059" fill="#9A9A9A"/>
</svg>
