<svg width="17" height="20" viewBox="0 0 17 20" fill="none" xmlns="http://www.w3.org/2000/svg">
<path fill-rule="evenodd" clip-rule="evenodd" d="M3.83871 5.00617C3.83871 2.24134 5.92564 0 8.5 0C11.0744 0 13.1613 2.24134 13.1613 5.00617C13.1613 7.771 11.0744 10.0123 8.5 10.0123C5.92564 10.0123 3.83871 7.771 3.83871 5.00617ZM8.5 1.76688C6.83424 1.76688 5.48387 3.21716 5.48387 5.00617C5.48387 6.79518 6.83424 8.24545 8.5 8.24545C10.1658 8.24545 11.5161 6.79518 11.5161 5.00617C11.5161 3.21716 10.1658 1.76688 8.5 1.76688Z" fill="#9A9A9A"/>
<path fill-rule="evenodd" clip-rule="evenodd" d="M4.1129 13.5461C2.75001 13.5461 1.64516 14.7327 1.64516 16.1964V17.5961C1.64516 17.6174 1.65954 17.6356 1.67913 17.639C6.19647 18.4311 10.8035 18.4311 15.3209 17.639C15.3405 17.6356 15.3548 17.6174 15.3548 17.5961V16.1964C15.3548 14.7327 14.25 13.5461 12.8871 13.5461H12.5132C12.4843 13.5461 12.4556 13.551 12.4281 13.5606L11.4789 13.8935C9.54324 14.5723 7.45676 14.5723 5.52114 13.8935L4.57187 13.5606C4.54439 13.551 4.51567 13.5461 4.48676 13.5461H4.1129ZM0 16.1964C0 13.7569 1.84141 11.7792 4.1129 11.7792H4.48676C4.68911 11.7792 4.89018 11.8136 5.08253 11.881L6.0318 12.2139C7.6356 12.7764 9.3644 12.7764 10.9682 12.2139L11.9175 11.881C12.1098 11.8136 12.3109 11.7792 12.5132 11.7792H12.8871C15.1586 11.7792 17 13.7569 17 16.1964V17.5961C17 18.4834 16.4013 19.2399 15.586 19.3828C10.8931 20.2057 6.10695 20.2057 1.41404 19.3828C0.598711 19.2399 0 18.4834 0 17.5961V16.1964Z" fill="#9A9A9A"/>
</svg>
